<?xml version="1.0" encoding="us-ascii" standalone="no"?><svg xmlns="http://www.w3.org/2000/svg" xmlns:xlink="http://www.w3.org/1999/xlink" contentStyleType="text/css" height="2249px" preserveAspectRatio="none" style="width:2851px;height:2249px;background:#FFFFFF;" version="1.1" viewBox="0 0 2851 2249" width="2851px" zoomAndPan="magnify"><defs/><g><!--class WorkflowExecution--><g id="elem_WorkflowExecution"><rect codeLine="2" fill="#F1F1F1" height="48" id="WorkflowExecution" rx="2.5" ry="2.5" style="stroke:#181818;stroke-width:0.5;" width="162" x="7" y="501.5"/><ellipse cx="22" cy="517.5" fill="#ADD1B2" rx="11" ry="11" style="stroke:#181818;stroke-width:1.0;"/><path d="M24.9688,523.1406 Q24.3906,523.4375 23.75,523.5781 Q23.1094,523.7344 22.4063,523.7344 Q19.9063,523.7344 18.5781,522.0938 Q17.2656,520.4375 17.2656,517.3125 Q17.2656,514.1875 18.5781,512.5313 Q19.9063,510.875 22.4063,510.875 Q23.1094,510.875 23.75,511.0313 Q24.4063,511.1875 24.9688,511.4844 L24.9688,514.2031 Q24.3438,513.625 23.75,513.3594 Q23.1563,513.0781 22.5313,513.0781 Q21.1875,513.0781 20.5,514.1563 Q19.8125,515.2188 19.8125,517.3125 Q19.8125,519.4063 20.5,520.4844 Q21.1875,521.5469 22.5313,521.5469 Q23.1563,521.5469 23.75,521.2813 Q24.3438,521 24.9688,520.4219 L24.9688,523.1406 Z " fill="#000000"/><text fill="#000000" font-family="sans-serif" font-size="14" lengthAdjust="spacing" textLength="130" x="36" y="522.3467">WorkflowExecution</text><line style="stroke:#181818;stroke-width:0.5;" x1="8" x2="168" y1="533.5" y2="533.5"/><line style="stroke:#181818;stroke-width:0.5;" x1="8" x2="168" y1="541.5" y2="541.5"/></g><!--class WorkflowChain--><g id="elem_WorkflowChain"><rect codeLine="3" fill="#F1F1F1" height="48" id="WorkflowChain" rx="2.5" ry="2.5" style="stroke:#181818;stroke-width:0.5;" width="133" x="346.5" y="501.5"/><ellipse cx="361.5" cy="517.5" fill="#ADD1B2" rx="11" ry="11" style="stroke:#181818;stroke-width:1.0;"/><path d="M364.4688,523.1406 Q363.8906,523.4375 363.25,523.5781 Q362.6094,523.7344 361.9063,523.7344 Q359.4063,523.7344 358.0781,522.0938 Q356.7656,520.4375 356.7656,517.3125 Q356.7656,514.1875 358.0781,512.5313 Q359.4063,510.875 361.9063,510.875 Q362.6094,510.875 363.25,511.0313 Q363.9063,511.1875 364.4688,511.4844 L364.4688,514.2031 Q363.8438,513.625 363.25,513.3594 Q362.6563,513.0781 362.0313,513.0781 Q360.6875,513.0781 360,514.1563 Q359.3125,515.2188 359.3125,517.3125 Q359.3125,519.4063 360,520.4844 Q360.6875,521.5469 362.0313,521.5469 Q362.6563,521.5469 363.25,521.2813 Q363.8438,521 364.4688,520.4219 L364.4688,523.1406 Z " fill="#000000"/><text fill="#000000" font-family="sans-serif" font-size="14" lengthAdjust="spacing" textLength="101" x="375.5" y="522.3467">WorkflowChain</text><line style="stroke:#181818;stroke-width:0.5;" x1="347.5" x2="478.5" y1="533.5" y2="533.5"/><line style="stroke:#181818;stroke-width:0.5;" x1="347.5" x2="478.5" y1="541.5" y2="541.5"/></g><!--class TextValue--><g id="elem_TextValue"><rect codeLine="4" fill="#F1F1F1" height="48" id="TextValue" rx="2.5" ry="2.5" style="stroke:#181818;stroke-width:0.5;" width="100" x="495" y="7"/><ellipse cx="510" cy="23" fill="#ADD1B2" rx="11" ry="11" style="stroke:#181818;stroke-width:1.0;"/><path d="M512.9688,28.6406 Q512.3906,28.9375 511.75,29.0781 Q511.1094,29.2344 510.4063,29.2344 Q507.9063,29.2344 506.5781,27.5938 Q505.2656,25.9375 505.2656,22.8125 Q505.2656,19.6875 506.5781,18.0313 Q507.9063,16.375 510.4063,16.375 Q511.1094,16.375 511.75,16.5313 Q512.4063,16.6875 512.9688,16.9844 L512.9688,19.7031 Q512.3438,19.125 511.75,18.8594 Q511.1563,18.5781 510.5313,18.5781 Q509.1875,18.5781 508.5,19.6563 Q507.8125,20.7188 507.8125,22.8125 Q507.8125,24.9063 508.5,25.9844 Q509.1875,27.0469 510.5313,27.0469 Q511.1563,27.0469 511.75,26.7813 Q512.3438,26.5 512.9688,25.9219 L512.9688,28.6406 Z " fill="#000000"/><text fill="#000000" font-family="sans-serif" font-size="14" lengthAdjust="spacing" textLength="68" x="524" y="27.8467">TextValue</text><line style="stroke:#181818;stroke-width:0.5;" x1="496" x2="594" y1="39" y2="39"/><line style="stroke:#181818;stroke-width:0.5;" x1="496" x2="594" y1="47" y2="47"/></g><!--class SubSamplingProcess--><g id="elem_SubSamplingProcess"><rect codeLine="5" fill="#F1F1F1" height="48" id="SubSamplingProcess" rx="2.5" ry="2.5" style="stroke:#181818;stroke-width:0.5;" width="178" x="1793" y="903.5"/><ellipse cx="1808" cy="919.5" fill="#ADD1B2" rx="11" ry="11" style="stroke:#181818;stroke-width:1.0;"/><path d="M1810.9688,925.1406 Q1810.3906,925.4375 1809.75,925.5781 Q1809.1094,925.7344 1808.4063,925.7344 Q1805.9063,925.7344 1804.5781,924.0938 Q1803.2656,922.4375 1803.2656,919.3125 Q1803.2656,916.1875 1804.5781,914.5313 Q1805.9063,912.875 1808.4063,912.875 Q1809.1094,912.875 1809.75,913.0313 Q1810.4063,913.1875 1810.9688,913.4844 L1810.9688,916.2031 Q1810.3438,915.625 1809.75,915.3594 Q1809.1563,915.0781 1808.5313,915.0781 Q1807.1875,915.0781 1806.5,916.1563 Q1805.8125,917.2188 1805.8125,919.3125 Q1805.8125,921.4063 1806.5,922.4844 Q1807.1875,923.5469 1808.5313,923.5469 Q1809.1563,923.5469 1809.75,923.2813 Q1810.3438,923 1810.9688,922.4219 L1810.9688,925.1406 Z " fill="#000000"/><text fill="#000000" font-family="sans-serif" font-size="14" lengthAdjust="spacing" textLength="146" x="1822" y="924.3467">SubSamplingProcess</text><line style="stroke:#181818;stroke-width:0.5;" x1="1794" x2="1970" y1="935.5" y2="935.5"/><line style="stroke:#181818;stroke-width:0.5;" x1="1794" x2="1970" y1="943.5" y2="943.5"/></g><!--class Study--><g id="elem_Study"><rect codeLine="6" fill="#F1F1F1" height="48" id="Study" rx="2.5" ry="2.5" style="stroke:#181818;stroke-width:0.5;" width="71" x="605.5" y="7"/><ellipse cx="620.5" cy="23" fill="#ADD1B2" rx="11" ry="11" style="stroke:#181818;stroke-width:1.0;"/><path d="M623.4688,28.6406 Q622.8906,28.9375 622.25,29.0781 Q621.6094,29.2344 620.9063,29.2344 Q618.4063,29.2344 617.0781,27.5938 Q615.7656,25.9375 615.7656,22.8125 Q615.7656,19.6875 617.0781,18.0313 Q618.4063,16.375 620.9063,16.375 Q621.6094,16.375 622.25,16.5313 Q622.9063,16.6875 623.4688,16.9844 L623.4688,19.7031 Q622.8438,19.125 622.25,18.8594 Q621.6563,18.5781 621.0313,18.5781 Q619.6875,18.5781 619,19.6563 Q618.3125,20.7188 618.3125,22.8125 Q618.3125,24.9063 619,25.9844 Q619.6875,27.0469 621.0313,27.0469 Q621.6563,27.0469 622.25,26.7813 Q622.8438,26.5 623.4688,25.9219 L623.4688,28.6406 Z " fill="#000000"/><text fill="#000000" font-family="sans-serif" font-size="14" lengthAdjust="spacing" textLength="39" x="634.5" y="27.8467">Study</text><line style="stroke:#181818;stroke-width:0.5;" x1="606.5" x2="675.5" y1="39" y2="39"/><line style="stroke:#181818;stroke-width:0.5;" x1="606.5" x2="675.5" y1="47" y2="47"/></g><!--class SolutionComponent--><g id="elem_SolutionComponent"><rect codeLine="7" fill="#F1F1F1" height="80.5938" id="SolutionComponent" rx="2.5" ry="2.5" style="stroke:#181818;stroke-width:0.5;" width="192" x="2036" y="2036"/><ellipse cx="2060.9" cy="2052" fill="#ADD1B2" rx="11" ry="11" style="stroke:#181818;stroke-width:1.0;"/><path d="M2063.8688,2057.6406 Q2063.2906,2057.9375 2062.65,2058.0781 Q2062.0094,2058.2344 2061.3063,2058.2344 Q2058.8063,2058.2344 2057.4781,2056.5938 Q2056.1656,2054.9375 2056.1656,2051.8125 Q2056.1656,2048.6875 2057.4781,2047.0313 Q2058.8063,2045.375 2061.3063,2045.375 Q2062.0094,2045.375 2062.65,2045.5313 Q2063.3063,2045.6875 2063.8688,2045.9844 L2063.8688,2048.7031 Q2063.2438,2048.125 2062.65,2047.8594 Q2062.0563,2047.5781 2061.4313,2047.5781 Q2060.0875,2047.5781 2059.4,2048.6563 Q2058.7125,2049.7188 2058.7125,2051.8125 Q2058.7125,2053.9063 2059.4,2054.9844 Q2060.0875,2056.0469 2061.4313,2056.0469 Q2062.0563,2056.0469 2062.65,2055.7813 Q2063.2438,2055.5 2063.8688,2054.9219 L2063.8688,2057.6406 Z " fill="#000000"/><text fill="#000000" font-family="sans-serif" font-size="14" lengthAdjust="spacing" textLength="138" x="2077.1" y="2056.8467">SolutionComponent</text><line style="stroke:#181818;stroke-width:0.5;" x1="2037" x2="2227" y1="2068" y2="2068"/><text fill="#000000" font-family="sans-serif" font-size="14" lengthAdjust="spacing" textLength="180" x="2042" y="2084.9951">"compound": "string" [req]</text><text fill="#000000" font-family="sans-serif" font-size="14" lengthAdjust="spacing" textLength="161" x="2042" y="2101.292">"type": "uriorcurie" [req]</text><line style="stroke:#181818;stroke-width:0.5;" x1="2037" x2="2227" y1="2108.5938" y2="2108.5938"/></g><!--class QuantityValue--><g id="elem_QuantityValue"><rect codeLine="11" fill="#F1F1F1" height="48" id="QuantityValue" rx="2.5" ry="2.5" style="stroke:#181818;stroke-width:0.5;" width="127" x="2068.5" y="2194"/><ellipse cx="2083.5" cy="2210" fill="#ADD1B2" rx="11" ry="11" style="stroke:#181818;stroke-width:1.0;"/><path d="M2086.4688,2215.6406 Q2085.8906,2215.9375 2085.25,2216.0781 Q2084.6094,2216.2344 2083.9063,2216.2344 Q2081.4063,2216.2344 2080.0781,2214.5938 Q2078.7656,2212.9375 2078.7656,2209.8125 Q2078.7656,2206.6875 2080.0781,2205.0313 Q2081.4063,2203.375 2083.9063,2203.375 Q2084.6094,2203.375 2085.25,2203.5313 Q2085.9063,2203.6875 2086.4688,2203.9844 L2086.4688,2206.7031 Q2085.8438,2206.125 2085.25,2205.8594 Q2084.6563,2205.5781 2084.0313,2205.5781 Q2082.6875,2205.5781 2082,2206.6563 Q2081.3125,2207.7188 2081.3125,2209.8125 Q2081.3125,2211.9063 2082,2212.9844 Q2082.6875,2214.0469 2084.0313,2214.0469 Q2084.6563,2214.0469 2085.25,2213.7813 Q2085.8438,2213.5 2086.4688,2212.9219 L2086.4688,2215.6406 Z " fill="#000000"/><text fill="#000000" font-family="sans-serif" font-size="14" lengthAdjust="spacing" textLength="95" x="2097.5" y="2214.8467">QuantityValue</text><line style="stroke:#181818;stroke-width:0.5;" x1="2069.5" x2="2194.5" y1="2226" y2="2226"/><line style="stroke:#181818;stroke-width:0.5;" x1="2069.5" x2="2194.5" y1="2234" y2="2234"/></g><!--class Solution--><g id="elem_Solution"><rect codeLine="12" fill="#F1F1F1" height="64.2969" id="Solution" rx="2.5" ry="2.5" style="stroke:#181818;stroke-width:0.5;" width="173" x="1890.5" y="1895"/><ellipse cx="1944.75" cy="1911" fill="#ADD1B2" rx="11" ry="11" style="stroke:#181818;stroke-width:1.0;"/><path d="M1947.7188,1916.6406 Q1947.1406,1916.9375 1946.5,1917.0781 Q1945.8594,1917.2344 1945.1563,1917.2344 Q1942.6563,1917.2344 1941.3281,1915.5938 Q1940.0156,1913.9375 1940.0156,1910.8125 Q1940.0156,1907.6875 1941.3281,1906.0313 Q1942.6563,1904.375 1945.1563,1904.375 Q1945.8594,1904.375 1946.5,1904.5313 Q1947.1563,1904.6875 1947.7188,1904.9844 L1947.7188,1907.7031 Q1947.0938,1907.125 1946.5,1906.8594 Q1945.9063,1906.5781 1945.2813,1906.5781 Q1943.9375,1906.5781 1943.25,1907.6563 Q1942.5625,1908.7188 1942.5625,1910.8125 Q1942.5625,1912.9063 1943.25,1913.9844 Q1943.9375,1915.0469 1945.2813,1915.0469 Q1945.9063,1915.0469 1946.5,1914.7813 Q1947.0938,1914.5 1947.7188,1913.9219 L1947.7188,1916.6406 Z " fill="#000000"/><text fill="#000000" font-family="sans-serif" font-size="14" lengthAdjust="spacing" textLength="56" x="1965.25" y="1915.8467">Solution</text><line style="stroke:#181818;stroke-width:0.5;" x1="1891.5" x2="2062.5" y1="1927" y2="1927"/><text fill="#000000" font-family="sans-serif" font-size="14" lengthAdjust="spacing" textLength="161" x="1896.5" y="1943.9951">"type": "uriorcurie" [req]</text><line style="stroke:#181818;stroke-width:0.5;" x1="1891.5" x2="2062.5" y1="1951.2969" y2="1951.2969"/></g><!--class Extraction--><g id="elem_Extraction"><rect codeLine="17" fill="#F1F1F1" height="48" id="Extraction" rx="2.5" ry="2.5" style="stroke:#181818;stroke-width:0.5;" width="100" x="1175" y="1177"/><ellipse cx="1190" cy="1193" fill="#ADD1B2" rx="11" ry="11" style="stroke:#181818;stroke-width:1.0;"/><path d="M1192.9688,1198.6406 Q1192.3906,1198.9375 1191.75,1199.0781 Q1191.1094,1199.2344 1190.4063,1199.2344 Q1187.9063,1199.2344 1186.5781,1197.5938 Q1185.2656,1195.9375 1185.2656,1192.8125 Q1185.2656,1189.6875 1186.5781,1188.0313 Q1187.9063,1186.375 1190.4063,1186.375 Q1191.1094,1186.375 1191.75,1186.5313 Q1192.4063,1186.6875 1192.9688,1186.9844 L1192.9688,1189.7031 Q1192.3438,1189.125 1191.75,1188.8594 Q1191.1563,1188.5781 1190.5313,1188.5781 Q1189.1875,1188.5781 1188.5,1189.6563 Q1187.8125,1190.7188 1187.8125,1192.8125 Q1187.8125,1194.9063 1188.5,1195.9844 Q1189.1875,1197.0469 1190.5313,1197.0469 Q1191.1563,1197.0469 1191.75,1196.7813 Q1192.3438,1196.5 1192.9688,1195.9219 L1192.9688,1198.6406 Z " fill="#000000"/><text fill="#000000" font-family="sans-serif" font-size="14" lengthAdjust="spacing" textLength="68" x="1204" y="1197.8467">Extraction</text><line style="stroke:#181818;stroke-width:0.5;" x1="1176" x2="1274" y1="1209" y2="1209"/><line style="stroke:#181818;stroke-width:0.5;" x1="1176" x2="1274" y1="1217" y2="1217"/></g><!--class ChromatographicSeparationProcess--><g id="elem_ChromatographicSeparationProcess"><rect codeLine="18" fill="#F1F1F1" height="243.5625" id="ChromatographicSeparationProcess" rx="2.5" ry="2.5" style="stroke:#181818;stroke-width:0.5;" width="483" x="2168.5" y="1574"/><ellipse cx="2281.25" cy="1590" fill="#ADD1B2" rx="11" ry="11" style="stroke:#181818;stroke-width:1.0;"/><path d="M2284.2188,1595.6406 Q2283.6406,1595.9375 2283,1596.0781 Q2282.3594,1596.2344 2281.6563,1596.2344 Q2279.1563,1596.2344 2277.8281,1594.5938 Q2276.5156,1592.9375 2276.5156,1589.8125 Q2276.5156,1586.6875 2277.8281,1585.0313 Q2279.1563,1583.375 2281.6563,1583.375 Q2282.3594,1583.375 2283,1583.5313 Q2283.6563,1583.6875 2284.2188,1583.9844 L2284.2188,1586.7031 Q2283.5938,1586.125 2283,1585.8594 Q2282.4063,1585.5781 2281.7813,1585.5781 Q2280.4375,1585.5781 2279.75,1586.6563 Q2279.0625,1587.7188 2279.0625,1589.8125 Q2279.0625,1591.9063 2279.75,1592.9844 Q2280.4375,1594.0469 2281.7813,1594.0469 Q2282.4063,1594.0469 2283,1593.7813 Q2283.5938,1593.5 2284.2188,1592.9219 L2284.2188,1595.6406 Z " fill="#000000"/><text fill="#000000" font-family="sans-serif" font-size="14" lengthAdjust="spacing" textLength="249" x="2301.75" y="1594.8467">ChromatographicSeparationProcess</text><line style="stroke:#181818;stroke-width:0.5;" x1="2169.5" x2="2650.5" y1="1606" y2="1606"/><text fill="#000000" font-family="sans-serif" font-size="14" lengthAdjust="spacing" textLength="471" x="2174.5" y="1622.9951">"chromatographic_category": "ChromatographicCategoryEnum" [opt]</text><text fill="#000000" font-family="sans-serif" font-size="14" lengthAdjust="spacing" textLength="334" x="2174.5" y="1639.292">"stationary_phase": "StationaryPhaseEnum" [opt]</text><text fill="#000000" font-family="sans-serif" font-size="14" lengthAdjust="spacing" textLength="143" x="2174.5" y="1655.5889">"id": "uriorcurie" [req]</text><text fill="#000000" font-family="sans-serif" font-size="14" lengthAdjust="spacing" textLength="416" x="2174.5" y="1671.8857">"processing_institution"(i): "ProcessingInstitutionEnum" [opt]</text><text fill="#000000" font-family="sans-serif" font-size="14" lengthAdjust="spacing" textLength="187" x="2174.5" y="1688.1826">"start_date"(i): "string" [opt]</text><text fill="#000000" font-family="sans-serif" font-size="14" lengthAdjust="spacing" textLength="183" x="2174.5" y="1704.4795">"end_date"(i): "string" [opt]</text><text fill="#000000" font-family="sans-serif" font-size="14" lengthAdjust="spacing" textLength="230" x="2174.5" y="1720.7764">"qc_status"(i): "StatusEnum" [opt]</text><text fill="#000000" font-family="sans-serif" font-size="14" lengthAdjust="spacing" textLength="208" x="2174.5" y="1737.0732">"qc_comment"(i): "string" [opt]</text><text fill="#000000" font-family="sans-serif" font-size="14" lengthAdjust="spacing" textLength="157" x="2174.5" y="1753.3701">"name"(i): "string" [opt]</text><text fill="#000000" font-family="sans-serif" font-size="14" lengthAdjust="spacing" textLength="195" x="2174.5" y="1769.667">"description"(i): "string" [opt]</text><text fill="#000000" font-family="sans-serif" font-size="14" lengthAdjust="spacing" textLength="290" x="2174.5" y="1785.9639">"alternative_identifiers"(i): "uriorcurie" [0..*]</text><text fill="#000000" font-family="sans-serif" font-size="14" lengthAdjust="spacing" textLength="174" x="2174.5" y="1802.2607">"type"(i): "uriorcurie" [req]</text><line style="stroke:#181818;stroke-width:0.5;" x1="2169.5" x2="2650.5" y1="1809.5625" y2="1809.5625"/></g><!--class DissolvingProcess--><g id="elem_DissolvingProcess"><rect codeLine="32" fill="#F1F1F1" height="48" id="DissolvingProcess" rx="2.5" ry="2.5" style="stroke:#181818;stroke-width:0.5;" width="158" x="1868" y="1496"/><ellipse cx="1883" cy="1512" fill="#ADD1B2" rx="11" ry="11" style="stroke:#181818;stroke-width:1.0;"/><path d="M1885.9688,1517.6406 Q1885.3906,1517.9375 1884.75,1518.0781 Q1884.1094,1518.2344 1883.4063,1518.2344 Q1880.9063,1518.2344 1879.5781,1516.5938 Q1878.2656,1514.9375 1878.2656,1511.8125 Q1878.2656,1508.6875 1879.5781,1507.0313 Q1880.9063,1505.375 1883.4063,1505.375 Q1884.1094,1505.375 1884.75,1505.5313 Q1885.4063,1505.6875 1885.9688,1505.9844 L1885.9688,1508.7031 Q1885.3438,1508.125 1884.75,1507.8594 Q1884.1563,1507.5781 1883.5313,1507.5781 Q1882.1875,1507.5781 1881.5,1508.6563 Q1880.8125,1509.7188 1880.8125,1511.8125 Q1880.8125,1513.9063 1881.5,1514.9844 Q1882.1875,1516.0469 1883.5313,1516.0469 Q1884.1563,1516.0469 1884.75,1515.7813 Q1885.3438,1515.5 1885.9688,1514.9219 L1885.9688,1517.6406 Z " fill="#000000"/><text fill="#000000" font-family="sans-serif" font-size="14" lengthAdjust="spacing" textLength="126" x="1897" y="1516.8467">DissolvingProcess</text><line style="stroke:#181818;stroke-width:0.5;" x1="1869" x2="2025" y1="1528" y2="1528"/><line style="stroke:#181818;stroke-width:0.5;" x1="1869" x2="2025" y1="1536" y2="1536"/></g><!--class ProtocolExecution--><g id="elem_ProtocolExecution"><rect codeLine="37" fill="#F1F1F1" height="48" id="ProtocolExecution" rx="2.5" ry="2.5" style="stroke:#181818;stroke-width:0.5;" width="157" x="179.5" y="501.5"/><ellipse cx="194.5" cy="517.5" fill="#ADD1B2" rx="11" ry="11" style="stroke:#181818;stroke-width:1.0;"/><path d="M197.4688,523.1406 Q196.8906,523.4375 196.25,523.5781 Q195.6094,523.7344 194.9063,523.7344 Q192.4063,523.7344 191.0781,522.0938 Q189.7656,520.4375 189.7656,517.3125 Q189.7656,514.1875 191.0781,512.5313 Q192.4063,510.875 194.9063,510.875 Q195.6094,510.875 196.25,511.0313 Q196.9063,511.1875 197.4688,511.4844 L197.4688,514.2031 Q196.8438,513.625 196.25,513.3594 Q195.6563,513.0781 195.0313,513.0781 Q193.6875,513.0781 193,514.1563 Q192.3125,515.2188 192.3125,517.3125 Q192.3125,519.4063 193,520.4844 Q193.6875,521.5469 195.0313,521.5469 Q195.6563,521.5469 196.25,521.2813 Q196.8438,521 197.4688,520.4219 L197.4688,523.1406 Z " fill="#000000"/><text fill="#000000" font-family="sans-serif" font-size="14" lengthAdjust="spacing" textLength="125" x="208.5" y="522.3467">ProtocolExecution</text><line style="stroke:#181818;stroke-width:0.5;" x1="180.5" x2="335.5" y1="533.5" y2="533.5"/><line style="stroke:#181818;stroke-width:0.5;" x1="180.5" x2="335.5" y1="541.5" y2="541.5"/></g><!--class Protocol--><g id="elem_Protocol"><rect codeLine="38" fill="#F1F1F1" height="48" id="Protocol" rx="2.5" ry="2.5" style="stroke:#181818;stroke-width:0.5;" width="89" x="489.5" y="501.5"/><ellipse cx="504.5" cy="517.5" fill="#ADD1B2" rx="11" ry="11" style="stroke:#181818;stroke-width:1.0;"/><path d="M507.4688,523.1406 Q506.8906,523.4375 506.25,523.5781 Q505.6094,523.7344 504.9063,523.7344 Q502.4063,523.7344 501.0781,522.0938 Q499.7656,520.4375 499.7656,517.3125 Q499.7656,514.1875 501.0781,512.5313 Q502.4063,510.875 504.9063,510.875 Q505.6094,510.875 506.25,511.0313 Q506.9063,511.1875 507.4688,511.4844 L507.4688,514.2031 Q506.8438,513.625 506.25,513.3594 Q505.6563,513.0781 505.0313,513.0781 Q503.6875,513.0781 503,514.1563 Q502.3125,515.2188 502.3125,517.3125 Q502.3125,519.4063 503,520.4844 Q503.6875,521.5469 505.0313,521.5469 Q505.6563,521.5469 506.25,521.2813 Q506.8438,521 507.4688,520.4219 L507.4688,523.1406 Z " fill="#000000"/><text fill="#000000" font-family="sans-serif" font-size="14" lengthAdjust="spacing" textLength="57" x="518.5" y="522.3467">Protocol</text><line style="stroke:#181818;stroke-width:0.5;" x1="490.5" x2="577.5" y1="533.5" y2="533.5"/><line style="stroke:#181818;stroke-width:0.5;" x1="490.5" x2="577.5" y1="541.5" y2="541.5"/></g><!--class ProcessedSample--><g id="elem_ProcessedSample"><rect codeLine="39" fill="#F1F1F1" height="48" id="ProcessedSample" rx="2.5" ry="2.5" style="stroke:#181818;stroke-width:0.5;" width="157" x="2025.5" y="903.5"/><ellipse cx="2040.5" cy="919.5" fill="#ADD1B2" rx="11" ry="11" style="stroke:#181818;stroke-width:1.0;"/><path d="M2043.4688,925.1406 Q2042.8906,925.4375 2042.25,925.5781 Q2041.6094,925.7344 2040.9063,925.7344 Q2038.4063,925.7344 2037.0781,924.0938 Q2035.7656,922.4375 2035.7656,919.3125 Q2035.7656,916.1875 2037.0781,914.5313 Q2038.4063,912.875 2040.9063,912.875 Q2041.6094,912.875 2042.25,913.0313 Q2042.9063,913.1875 2043.4688,913.4844 L2043.4688,916.2031 Q2042.8438,915.625 2042.25,915.3594 Q2041.6563,915.0781 2041.0313,915.0781 Q2039.6875,915.0781 2039,916.1563 Q2038.3125,917.2188 2038.3125,919.3125 Q2038.3125,921.4063 2039,922.4844 Q2039.6875,923.5469 2041.0313,923.5469 Q2041.6563,923.5469 2042.25,923.2813 Q2042.8438,923 2043.4688,922.4219 L2043.4688,925.1406 Z " fill="#000000"/><text fill="#000000" font-family="sans-serif" font-size="14" lengthAdjust="spacing" textLength="125" x="2054.5" y="924.3467">ProcessedSample</text><line style="stroke:#181818;stroke-width:0.5;" x1="2026.5" x2="2181.5" y1="935.5" y2="935.5"/><line style="stroke:#181818;stroke-width:0.5;" x1="2026.5" x2="2181.5" y1="943.5" y2="943.5"/></g><!--class Pooling--><g id="elem_Pooling"><rect codeLine="40" fill="#F1F1F1" height="48" id="Pooling" rx="2.5" ry="2.5" style="stroke:#181818;stroke-width:0.5;" width="83" x="2192.5" y="903.5"/><ellipse cx="2207.5" cy="919.5" fill="#ADD1B2" rx="11" ry="11" style="stroke:#181818;stroke-width:1.0;"/><path d="M2210.4688,925.1406 Q2209.8906,925.4375 2209.25,925.5781 Q2208.6094,925.7344 2207.9063,925.7344 Q2205.4063,925.7344 2204.0781,924.0938 Q2202.7656,922.4375 2202.7656,919.3125 Q2202.7656,916.1875 2204.0781,914.5313 Q2205.4063,912.875 2207.9063,912.875 Q2208.6094,912.875 2209.25,913.0313 Q2209.9063,913.1875 2210.4688,913.4844 L2210.4688,916.2031 Q2209.8438,915.625 2209.25,915.3594 Q2208.6563,915.0781 2208.0313,915.0781 Q2206.6875,915.0781 2206,916.1563 Q2205.3125,917.2188 2205.3125,919.3125 Q2205.3125,921.4063 2206,922.4844 Q2206.6875,923.5469 2208.0313,923.5469 Q2208.6563,923.5469 2209.25,923.2813 Q2209.8438,923 2210.4688,922.4219 L2210.4688,925.1406 Z " fill="#000000"/><text fill="#000000" font-family="sans-serif" font-size="14" lengthAdjust="spacing" textLength="51" x="2221.5" y="924.3467">Pooling</text><line style="stroke:#181818;stroke-width:0.5;" x1="2193.5" x2="2274.5" y1="935.5" y2="935.5"/><line style="stroke:#181818;stroke-width:0.5;" x1="2193.5" x2="2274.5" y1="943.5" y2="943.5"/></g><!--class PlannedProcess--><g id="elem_PlannedProcess"><rect codeLine="41" fill="#F1F1F1" height="210.9688" id="PlannedProcess" rx="2.5" ry="2.5" style="stroke:#181818;stroke-width:0.5;" width="415" x="614.5" y="132"/><ellipse cx="763.75" cy="148" fill="#A9DCDF" rx="11" ry="11" style="stroke:#181818;stroke-width:1.0;"/><path d="M763.8594,143.3438 L762.7031,148.4219 L765.0313,148.4219 L763.8594,143.3438 Z M762.375,141.1094 L765.3594,141.1094 L768.7188,153.5 L766.2656,153.5 L765.5,150.4375 L762.2188,150.4375 L761.4688,153.5 L759.0313,153.5 L762.375,141.1094 Z " fill="#000000"/><text fill="#000000" font-family="sans-serif" font-size="14" font-style="italic" lengthAdjust="spacing" textLength="108" x="784.25" y="152.8467">PlannedProcess</text><line style="stroke:#181818;stroke-width:0.5;" x1="615.5" x2="1028.5" y1="164" y2="164"/><text fill="#000000" font-family="sans-serif" font-size="14" lengthAdjust="spacing" textLength="403" x="620.5" y="180.9951">"processing_institution": "ProcessingInstitutionEnum" [opt]</text><text fill="#000000" font-family="sans-serif" font-size="14" lengthAdjust="spacing" textLength="174" x="620.5" y="197.292">"start_date": "string" [opt]</text><text fill="#000000" font-family="sans-serif" font-size="14" lengthAdjust="spacing" textLength="170" x="620.5" y="213.5889">"end_date": "string" [opt]</text><text fill="#000000" font-family="sans-serif" font-size="14" lengthAdjust="spacing" textLength="217" x="620.5" y="229.8857">"qc_status": "StatusEnum" [opt]</text><text fill="#000000" font-family="sans-serif" font-size="14" lengthAdjust="spacing" textLength="195" x="620.5" y="246.1826">"qc_comment": "string" [opt]</text><text fill="#000000" font-family="sans-serif" font-size="14" lengthAdjust="spacing" textLength="156" x="620.5" y="262.4795">"id"(i): "uriorcurie" [req]</text><text fill="#000000" font-family="sans-serif" font-size="14" lengthAdjust="spacing" textLength="157" x="620.5" y="278.7764">"name"(i): "string" [opt]</text><text fill="#000000" font-family="sans-serif" font-size="14" lengthAdjust="spacing" textLength="195" x="620.5" y="295.0732">"description"(i): "string" [opt]</text><text fill="#000000" font-family="sans-serif" font-size="14" lengthAdjust="spacing" textLength="290" x="620.5" y="311.3701">"alternative_identifiers"(i): "uriorcurie" [0..*]</text><text fill="#000000" font-family="sans-serif" font-size="14" lengthAdjust="spacing" textLength="174" x="620.5" y="327.667">"type"(i): "uriorcurie" [req]</text><line style="stroke:#181818;stroke-width:0.5;" x1="615.5" x2="1028.5" y1="334.9688" y2="334.9688"/></g><!--class FailureCategorization--><g id="elem_FailureCategorization"><rect codeLine="53" fill="#F1F1F1" height="48" id="FailureCategorization" rx="2.5" ry="2.5" style="stroke:#181818;stroke-width:0.5;" width="177" x="588.5" y="501.5"/><ellipse cx="603.5" cy="517.5" fill="#ADD1B2" rx="11" ry="11" style="stroke:#181818;stroke-width:1.0;"/><path d="M606.4688,523.1406 Q605.8906,523.4375 605.25,523.5781 Q604.6094,523.7344 603.9063,523.7344 Q601.4063,523.7344 600.0781,522.0938 Q598.7656,520.4375 598.7656,517.3125 Q598.7656,514.1875 600.0781,512.5313 Q601.4063,510.875 603.9063,510.875 Q604.6094,510.875 605.25,511.0313 Q605.9063,511.1875 606.4688,511.4844 L606.4688,514.2031 Q605.8438,513.625 605.25,513.3594 Q604.6563,513.0781 604.0313,513.0781 Q602.6875,513.0781 602,514.1563 Q601.3125,515.2188 601.3125,517.3125 Q601.3125,519.4063 602,520.4844 Q602.6875,521.5469 604.0313,521.5469 Q604.6563,521.5469 605.25,521.2813 Q605.8438,521 606.4688,520.4219 L606.4688,523.1406 Z " fill="#000000"/><text fill="#000000" font-family="sans-serif" font-size="14" lengthAdjust="spacing" textLength="145" x="617.5" y="522.3467">FailureCategorization</text><line style="stroke:#181818;stroke-width:0.5;" x1="589.5" x2="764.5" y1="533.5" y2="533.5"/><line style="stroke:#181818;stroke-width:0.5;" x1="589.5" x2="764.5" y1="541.5" y2="541.5"/></g><!--class Instrument--><g id="elem_Instrument"><rect codeLine="54" fill="#F1F1F1" height="48" id="Instrument" rx="2.5" ry="2.5" style="stroke:#181818;stroke-width:0.5;" width="107" x="775.5" y="501.5"/><ellipse cx="790.5" cy="517.5" fill="#ADD1B2" rx="11" ry="11" style="stroke:#181818;stroke-width:1.0;"/><path d="M793.4688,523.1406 Q792.8906,523.4375 792.25,523.5781 Q791.6094,523.7344 790.9063,523.7344 Q788.4063,523.7344 787.0781,522.0938 Q785.7656,520.4375 785.7656,517.3125 Q785.7656,514.1875 787.0781,512.5313 Q788.4063,510.875 790.9063,510.875 Q791.6094,510.875 792.25,511.0313 Q792.9063,511.1875 793.4688,511.4844 L793.4688,514.2031 Q792.8438,513.625 792.25,513.3594 Q791.6563,513.0781 791.0313,513.0781 Q789.6875,513.0781 789,514.1563 Q788.3125,515.2188 788.3125,517.3125 Q788.3125,519.4063 789,520.4844 Q789.6875,521.5469 791.0313,521.5469 Q791.6563,521.5469 792.25,521.2813 Q792.8438,521 793.4688,520.4219 L793.4688,523.1406 Z " fill="#000000"/><text fill="#000000" font-family="sans-serif" font-size="14" lengthAdjust="spacing" textLength="75" x="804.5" y="522.3467">Instrument</text><line style="stroke:#181818;stroke-width:0.5;" x1="776.5" x2="881.5" y1="533.5" y2="533.5"/><line style="stroke:#181818;stroke-width:0.5;" x1="776.5" x2="881.5" y1="541.5" y2="541.5"/></g><!--class NamedThing--><g id="elem_NamedThing"><rect codeLine="55" fill="#F1F1F1" height="48" id="NamedThing" rx="2.5" ry="2.5" style="stroke:#181818;stroke-width:0.5;" width="121" x="936.5" y="903.5"/><ellipse cx="951.5" cy="919.5" fill="#A9DCDF" rx="11" ry="11" style="stroke:#181818;stroke-width:1.0;"/><path d="M951.6094,914.8438 L950.4531,919.9219 L952.7813,919.9219 L951.6094,914.8438 Z M950.125,912.6094 L953.1094,912.6094 L956.4688,925 L954.0156,925 L953.25,921.9375 L949.9688,921.9375 L949.2188,925 L946.7813,925 L950.125,912.6094 Z " fill="#000000"/><text fill="#000000" font-family="sans-serif" font-size="14" font-style="italic" lengthAdjust="spacing" textLength="89" x="965.5" y="924.3467">NamedThing</text><line style="stroke:#181818;stroke-width:0.5;" x1="937.5" x2="1056.5" y1="935.5" y2="935.5"/><line style="stroke:#181818;stroke-width:0.5;" x1="937.5" x2="1056.5" y1="943.5" y2="943.5"/></g><!--class Database--><g id="elem_Database"><rect codeLine="56" fill="#F1F1F1" height="48" id="Database" rx="2.5" ry="2.5" style="stroke:#181818;stroke-width:0.5;" width="98" x="773" y="7"/><ellipse cx="788" cy="23" fill="#ADD1B2" rx="11" ry="11" style="stroke:#181818;stroke-width:1.0;"/><path d="M790.9688,28.6406 Q790.3906,28.9375 789.75,29.0781 Q789.1094,29.2344 788.4063,29.2344 Q785.9063,29.2344 784.5781,27.5938 Q783.2656,25.9375 783.2656,22.8125 Q783.2656,19.6875 784.5781,18.0313 Q785.9063,16.375 788.4063,16.375 Q789.1094,16.375 789.75,16.5313 Q790.4063,16.6875 790.9688,16.9844 L790.9688,19.7031 Q790.3438,19.125 789.75,18.8594 Q789.1563,18.5781 788.5313,18.5781 Q787.1875,18.5781 786.5,19.6563 Q785.8125,20.7188 785.8125,22.8125 Q785.8125,24.9063 786.5,25.9844 Q787.1875,27.0469 788.5313,27.0469 Q789.1563,27.0469 789.75,26.7813 Q790.3438,26.5 790.9688,25.9219 L790.9688,28.6406 Z " fill="#000000"/><text fill="#000000" font-family="sans-serif" font-size="14" lengthAdjust="spacing" textLength="66" x="802" y="27.8467">Database</text><line style="stroke:#181818;stroke-width:0.5;" x1="774" x2="870" y1="39" y2="39"/><line style="stroke:#181818;stroke-width:0.5;" x1="774" x2="870" y1="47" y2="47"/></g><!--class MaterialProcessing--><g id="elem_MaterialProcessing"><rect codeLine="57" fill="#F1F1F1" height="210.9688" id="MaterialProcessing" rx="2.5" ry="2.5" style="stroke:#181818;stroke-width:0.5;" width="428" x="1256" y="420"/><ellipse cx="1400.75" cy="436" fill="#ADD1B2" rx="11" ry="11" style="stroke:#181818;stroke-width:1.0;"/><path d="M1403.7188,441.6406 Q1403.1406,441.9375 1402.5,442.0781 Q1401.8594,442.2344 1401.1563,442.2344 Q1398.6563,442.2344 1397.3281,440.5938 Q1396.0156,438.9375 1396.0156,435.8125 Q1396.0156,432.6875 1397.3281,431.0313 Q1398.6563,429.375 1401.1563,429.375 Q1401.8594,429.375 1402.5,429.5313 Q1403.1563,429.6875 1403.7188,429.9844 L1403.7188,432.7031 Q1403.0938,432.125 1402.5,431.8594 Q1401.9063,431.5781 1401.2813,431.5781 Q1399.9375,431.5781 1399.25,432.6563 Q1398.5625,433.7188 1398.5625,435.8125 Q1398.5625,437.9063 1399.25,438.9844 Q1399.9375,440.0469 1401.2813,440.0469 Q1401.9063,440.0469 1402.5,439.7813 Q1403.0938,439.5 1403.7188,438.9219 L1403.7188,441.6406 Z " fill="#000000"/><text fill="#000000" font-family="sans-serif" font-size="14" lengthAdjust="spacing" textLength="130" x="1421.25" y="440.8467">MaterialProcessing</text><line style="stroke:#181818;stroke-width:0.5;" x1="1257" x2="1683" y1="452" y2="452"/><text fill="#000000" font-family="sans-serif" font-size="14" lengthAdjust="spacing" textLength="143" x="1262" y="468.9951">"id": "uriorcurie" [req]</text><text fill="#000000" font-family="sans-serif" font-size="14" lengthAdjust="spacing" textLength="416" x="1262" y="485.292">"processing_institution"(i): "ProcessingInstitutionEnum" [opt]</text><text fill="#000000" font-family="sans-serif" font-size="14" lengthAdjust="spacing" textLength="187" x="1262" y="501.5889">"start_date"(i): "string" [opt]</text><text fill="#000000" font-family="sans-serif" font-size="14" lengthAdjust="spacing" textLength="183" x="1262" y="517.8857">"end_date"(i): "string" [opt]</text><text fill="#000000" font-family="sans-serif" font-size="14" lengthAdjust="spacing" textLength="230" x="1262" y="534.1826">"qc_status"(i): "StatusEnum" [opt]</text><text fill="#000000" font-family="sans-serif" font-size="14" lengthAdjust="spacing" textLength="208" x="1262" y="550.4795">"qc_comment"(i): "string" [opt]</text><text fill="#000000" font-family="sans-serif" font-size="14" lengthAdjust="spacing" textLength="157" x="1262" y="566.7764">"name"(i): "string" [opt]</text><text fill="#000000" font-family="sans-serif" font-size="14" lengthAdjust="spacing" textLength="195" x="1262" y="583.0732">"description"(i): "string" [opt]</text><text fill="#000000" font-family="sans-serif" font-size="14" lengthAdjust="spacing" textLength="290" x="1262" y="599.3701">"alternative_identifiers"(i): "uriorcurie" [0..*]</text><text fill="#000000" font-family="sans-serif" font-size="14" lengthAdjust="spacing" textLength="174" x="1262" y="615.667">"type"(i): "uriorcurie" [req]</text><line style="stroke:#181818;stroke-width:0.5;" x1="1257" x2="1683" y1="622.9688" y2="622.9688"/></g><!--class DataGeneration--><g id="elem_DataGeneration"><rect codeLine="69" fill="#F1F1F1" height="48" id="DataGeneration" rx="2.5" ry="2.5" style="stroke:#181818;stroke-width:0.5;" width="141" x="1694.5" y="501.5"/><ellipse cx="1709.5" cy="517.5" fill="#A9DCDF" rx="11" ry="11" style="stroke:#181818;stroke-width:1.0;"/><path d="M1709.6094,512.8438 L1708.4531,517.9219 L1710.7813,517.9219 L1709.6094,512.8438 Z M1708.125,510.6094 L1711.1094,510.6094 L1714.4688,523 L1712.0156,523 L1711.25,519.9375 L1707.9688,519.9375 L1707.2188,523 L1704.7813,523 L1708.125,510.6094 Z " fill="#000000"/><text fill="#000000" font-family="sans-serif" font-size="14" font-style="italic" lengthAdjust="spacing" textLength="109" x="1723.5" y="522.3467">DataGeneration</text><line style="stroke:#181818;stroke-width:0.5;" x1="1695.5" x2="1834.5" y1="533.5" y2="533.5"/><line style="stroke:#181818;stroke-width:0.5;" x1="1695.5" x2="1834.5" y1="541.5" y2="541.5"/></g><!--class CollectingBiosamplesFromSite--><g id="elem_CollectingBiosamplesFromSite"><rect codeLine="70" fill="#F1F1F1" height="48" id="CollectingBiosamplesFromSite" rx="2.5" ry="2.5" style="stroke:#181818;stroke-width:0.5;" width="241" x="1845.5" y="501.5"/><ellipse cx="1860.5" cy="517.5" fill="#ADD1B2" rx="11" ry="11" style="stroke:#181818;stroke-width:1.0;"/><path d="M1863.4688,523.1406 Q1862.8906,523.4375 1862.25,523.5781 Q1861.6094,523.7344 1860.9063,523.7344 Q1858.4063,523.7344 1857.0781,522.0938 Q1855.7656,520.4375 1855.7656,517.3125 Q1855.7656,514.1875 1857.0781,512.5313 Q1858.4063,510.875 1860.9063,510.875 Q1861.6094,510.875 1862.25,511.0313 Q1862.9063,511.1875 1863.4688,511.4844 L1863.4688,514.2031 Q1862.8438,513.625 1862.25,513.3594 Q1861.6563,513.0781 1861.0313,513.0781 Q1859.6875,513.0781 1859,514.1563 Q1858.3125,515.2188 1858.3125,517.3125 Q1858.3125,519.4063 1859,520.4844 Q1859.6875,521.5469 1861.0313,521.5469 Q1861.6563,521.5469 1862.25,521.2813 Q1862.8438,521 1863.4688,520.4219 L1863.4688,523.1406 Z " fill="#000000"/><text fill="#000000" font-family="sans-serif" font-size="14" lengthAdjust="spacing" textLength="209" x="1874.5" y="522.3467">CollectingBiosamplesFromSite</text><line style="stroke:#181818;stroke-width:0.5;" x1="1846.5" x2="2085.5" y1="533.5" y2="533.5"/><line style="stroke:#181818;stroke-width:0.5;" x1="1846.5" x2="2085.5" y1="541.5" y2="541.5"/></g><!--class PersonValue--><g id="elem_PersonValue"><rect codeLine="85" fill="#F1F1F1" height="48" id="PersonValue" rx="2.5" ry="2.5" style="stroke:#181818;stroke-width:0.5;" width="119" x="485.5" y="213.5"/><ellipse cx="500.5" cy="229.5" fill="#ADD1B2" rx="11" ry="11" style="stroke:#181818;stroke-width:1.0;"/><path d="M503.4688,235.1406 Q502.8906,235.4375 502.25,235.5781 Q501.6094,235.7344 500.9063,235.7344 Q498.4063,235.7344 497.0781,234.0938 Q495.7656,232.4375 495.7656,229.3125 Q495.7656,226.1875 497.0781,224.5313 Q498.4063,222.875 500.9063,222.875 Q501.6094,222.875 502.25,223.0313 Q502.9063,223.1875 503.4688,223.4844 L503.4688,226.2031 Q502.8438,225.625 502.25,225.3594 Q501.6563,225.0781 501.0313,225.0781 Q499.6875,225.0781 499,226.1563 Q498.3125,227.2188 498.3125,229.3125 Q498.3125,231.4063 499,232.4844 Q499.6875,233.5469 501.0313,233.5469 Q501.6563,233.5469 502.25,233.2813 Q502.8438,233 503.4688,232.4219 L503.4688,235.1406 Z " fill="#000000"/><text fill="#000000" font-family="sans-serif" font-size="14" lengthAdjust="spacing" textLength="87" x="514.5" y="234.3467">PersonValue</text><line style="stroke:#181818;stroke-width:0.5;" x1="486.5" x2="603.5" y1="245.5" y2="245.5"/><line style="stroke:#181818;stroke-width:0.5;" x1="486.5" x2="603.5" y1="253.5" y2="253.5"/></g><!--class MixingProcess--><g id="elem_MixingProcess"><rect codeLine="86" fill="#F1F1F1" height="48" id="MixingProcess" rx="2.5" ry="2.5" style="stroke:#181818;stroke-width:0.5;" width="131" x="1090.5" y="903.5"/><ellipse cx="1105.5" cy="919.5" fill="#ADD1B2" rx="11" ry="11" style="stroke:#181818;stroke-width:1.0;"/><path d="M1108.4688,925.1406 Q1107.8906,925.4375 1107.25,925.5781 Q1106.6094,925.7344 1105.9063,925.7344 Q1103.4063,925.7344 1102.0781,924.0938 Q1100.7656,922.4375 1100.7656,919.3125 Q1100.7656,916.1875 1102.0781,914.5313 Q1103.4063,912.875 1105.9063,912.875 Q1106.6094,912.875 1107.25,913.0313 Q1107.9063,913.1875 1108.4688,913.4844 L1108.4688,916.2031 Q1107.8438,915.625 1107.25,915.3594 Q1106.6563,915.0781 1106.0313,915.0781 Q1104.6875,915.0781 1104,916.1563 Q1103.3125,917.2188 1103.3125,919.3125 Q1103.3125,921.4063 1104,922.4844 Q1104.6875,923.5469 1106.0313,923.5469 Q1106.6563,923.5469 1107.25,923.2813 Q1107.8438,923 1108.4688,922.4219 L1108.4688,925.1406 Z " fill="#000000"/><text fill="#000000" font-family="sans-serif" font-size="14" lengthAdjust="spacing" textLength="99" x="1119.5" y="924.3467">MixingProcess</text><line style="stroke:#181818;stroke-width:0.5;" x1="1091.5" x2="1220.5" y1="935.5" y2="935.5"/><line style="stroke:#181818;stroke-width:0.5;" x1="1091.5" x2="1220.5" y1="943.5" y2="943.5"/></g><!--class LibraryPreparation--><g id="elem_LibraryPreparation"><rect codeLine="87" fill="#F1F1F1" height="48" id="LibraryPreparation" rx="2.5" ry="2.5" style="stroke:#181818;stroke-width:0.5;" width="155" x="1231.5" y="903.5"/><ellipse cx="1246.5" cy="919.5" fill="#ADD1B2" rx="11" ry="11" style="stroke:#181818;stroke-width:1.0;"/><path d="M1249.4688,925.1406 Q1248.8906,925.4375 1248.25,925.5781 Q1247.6094,925.7344 1246.9063,925.7344 Q1244.4063,925.7344 1243.0781,924.0938 Q1241.7656,922.4375 1241.7656,919.3125 Q1241.7656,916.1875 1243.0781,914.5313 Q1244.4063,912.875 1246.9063,912.875 Q1247.6094,912.875 1248.25,913.0313 Q1248.9063,913.1875 1249.4688,913.4844 L1249.4688,916.2031 Q1248.8438,915.625 1248.25,915.3594 Q1247.6563,915.0781 1247.0313,915.0781 Q1245.6875,915.0781 1245,916.1563 Q1244.3125,917.2188 1244.3125,919.3125 Q1244.3125,921.4063 1245,922.4844 Q1245.6875,923.5469 1247.0313,923.5469 Q1247.6563,923.5469 1248.25,923.2813 Q1248.8438,923 1249.4688,922.4219 L1249.4688,925.1406 Z " fill="#000000"/><text fill="#000000" font-family="sans-serif" font-size="14" lengthAdjust="spacing" textLength="123" x="1260.5" y="924.3467">LibraryPreparation</text><line style="stroke:#181818;stroke-width:0.5;" x1="1232.5" x2="1385.5" y1="935.5" y2="935.5"/><line style="stroke:#181818;stroke-width:0.5;" x1="1232.5" x2="1385.5" y1="943.5" y2="943.5"/></g><!--class FluidHandling--><g id="elem_FluidHandling"><rect codeLine="88" fill="#F1F1F1" height="210.9688" id="FluidHandling" rx="2.5" ry="2.5" style="stroke:#181818;stroke-width:0.5;" width="428" x="2054" y="1255"/><ellipse cx="2217.25" cy="1271" fill="#A9DCDF" rx="11" ry="11" style="stroke:#181818;stroke-width:1.0;"/><path d="M2217.3594,1266.3438 L2216.2031,1271.4219 L2218.5313,1271.4219 L2217.3594,1266.3438 Z M2215.875,1264.1094 L2218.8594,1264.1094 L2222.2188,1276.5 L2219.7656,1276.5 L2219,1273.4375 L2215.7188,1273.4375 L2214.9688,1276.5 L2212.5313,1276.5 L2215.875,1264.1094 Z " fill="#000000"/><text fill="#000000" font-family="sans-serif" font-size="14" font-style="italic" lengthAdjust="spacing" textLength="93" x="2237.75" y="1275.8467">FluidHandling</text><line style="stroke:#181818;stroke-width:0.5;" x1="2055" x2="2481" y1="1287" y2="1287"/><text fill="#000000" font-family="sans-serif" font-size="14" lengthAdjust="spacing" textLength="156" x="2060" y="1303.9951">"id"(i): "uriorcurie" [req]</text><text fill="#000000" font-family="sans-serif" font-size="14" lengthAdjust="spacing" textLength="416" x="2060" y="1320.292">"processing_institution"(i): "ProcessingInstitutionEnum" [opt]</text><text fill="#000000" font-family="sans-serif" font-size="14" lengthAdjust="spacing" textLength="187" x="2060" y="1336.5889">"start_date"(i): "string" [opt]</text><text fill="#000000" font-family="sans-serif" font-size="14" lengthAdjust="spacing" textLength="183" x="2060" y="1352.8857">"end_date"(i): "string" [opt]</text><text fill="#000000" font-family="sans-serif" font-size="14" lengthAdjust="spacing" textLength="230" x="2060" y="1369.1826">"qc_status"(i): "StatusEnum" [opt]</text><text fill="#000000" font-family="sans-serif" font-size="14" lengthAdjust="spacing" textLength="208" x="2060" y="1385.4795">"qc_comment"(i): "string" [opt]</text><text fill="#000000" font-family="sans-serif" font-size="14" lengthAdjust="spacing" textLength="157" x="2060" y="1401.7764">"name"(i): "string" [opt]</text><text fill="#000000" font-family="sans-serif" font-size="14" lengthAdjust="spacing" textLength="195" x="2060" y="1418.0732">"description"(i): "string" [opt]</text><text fill="#000000" font-family="sans-serif" font-size="14" lengthAdjust="spacing" textLength="290" x="2060" y="1434.3701">"alternative_identifiers"(i): "uriorcurie" [0..*]</text><text fill="#000000" font-family="sans-serif" font-size="14" lengthAdjust="spacing" textLength="174" x="2060" y="1450.667">"type"(i): "uriorcurie" [req]</text><line style="stroke:#181818;stroke-width:0.5;" x1="2055" x2="2481" y1="1457.9688" y2="1457.9688"/></g><!--class FiltrationProcess--><g id="elem_FiltrationProcess"><rect codeLine="100" fill="#F1F1F1" height="48" id="FiltrationProcess" rx="2.5" ry="2.5" style="stroke:#181818;stroke-width:0.5;" width="146" x="1397" y="903.5"/><ellipse cx="1412" cy="919.5" fill="#ADD1B2" rx="11" ry="11" style="stroke:#181818;stroke-width:1.0;"/><path d="M1414.9688,925.1406 Q1414.3906,925.4375 1413.75,925.5781 Q1413.1094,925.7344 1412.4063,925.7344 Q1409.9063,925.7344 1408.5781,924.0938 Q1407.2656,922.4375 1407.2656,919.3125 Q1407.2656,916.1875 1408.5781,914.5313 Q1409.9063,912.875 1412.4063,912.875 Q1413.1094,912.875 1413.75,913.0313 Q1414.4063,913.1875 1414.9688,913.4844 L1414.9688,916.2031 Q1414.3438,915.625 1413.75,915.3594 Q1413.1563,915.0781 1412.5313,915.0781 Q1411.1875,915.0781 1410.5,916.1563 Q1409.8125,917.2188 1409.8125,919.3125 Q1409.8125,921.4063 1410.5,922.4844 Q1411.1875,923.5469 1412.5313,923.5469 Q1413.1563,923.5469 1413.75,923.2813 Q1414.3438,923 1414.9688,922.4219 L1414.9688,925.1406 Z " fill="#000000"/><text fill="#000000" font-family="sans-serif" font-size="14" lengthAdjust="spacing" textLength="114" x="1426" y="924.3467">FiltrationProcess</text><line style="stroke:#181818;stroke-width:0.5;" x1="1398" x2="1542" y1="935.5" y2="935.5"/><line style="stroke:#181818;stroke-width:0.5;" x1="1398" x2="1542" y1="943.5" y2="943.5"/></g><!--class ChemicalConversionProcess--><g id="elem_ChemicalConversionProcess"><rect codeLine="101" fill="#F1F1F1" height="48" id="ChemicalConversionProcess" rx="2.5" ry="2.5" style="stroke:#181818;stroke-width:0.5;" width="229" x="1553.5" y="903.5"/><ellipse cx="1568.5" cy="919.5" fill="#ADD1B2" rx="11" ry="11" style="stroke:#181818;stroke-width:1.0;"/><path d="M1571.4688,925.1406 Q1570.8906,925.4375 1570.25,925.5781 Q1569.6094,925.7344 1568.9063,925.7344 Q1566.4063,925.7344 1565.0781,924.0938 Q1563.7656,922.4375 1563.7656,919.3125 Q1563.7656,916.1875 1565.0781,914.5313 Q1566.4063,912.875 1568.9063,912.875 Q1569.6094,912.875 1570.25,913.0313 Q1570.9063,913.1875 1571.4688,913.4844 L1571.4688,916.2031 Q1570.8438,915.625 1570.25,915.3594 Q1569.6563,915.0781 1569.0313,915.0781 Q1567.6875,915.0781 1567,916.1563 Q1566.3125,917.2188 1566.3125,919.3125 Q1566.3125,921.4063 1567,922.4844 Q1567.6875,923.5469 1569.0313,923.5469 Q1569.6563,923.5469 1570.25,923.2813 Q1570.8438,923 1571.4688,922.4219 L1571.4688,925.1406 Z " fill="#000000"/><text fill="#000000" font-family="sans-serif" font-size="14" lengthAdjust="spacing" textLength="197" x="1582.5" y="924.3467">ChemicalConversionProcess</text><line style="stroke:#181818;stroke-width:0.5;" x1="1554.5" x2="1781.5" y1="935.5" y2="935.5"/><line style="stroke:#181818;stroke-width:0.5;" x1="1554.5" x2="1781.5" y1="943.5" y2="943.5"/></g><!--class MassSpectrometry--><g id="elem_MassSpectrometry"><rect codeLine="113" fill="#F1F1F1" height="439.125" id="MassSpectrometry" rx="2.5" ry="2.5" style="stroke:#181818;stroke-width:0.5;" width="558" x="2286" y="708"/><ellipse cx="2496.25" cy="724" fill="#ADD1B2" rx="11" ry="11" style="stroke:#181818;stroke-width:1.0;"/><path d="M2499.2188,729.6406 Q2498.6406,729.9375 2498,730.0781 Q2497.3594,730.2344 2496.6563,730.2344 Q2494.1563,730.2344 2492.8281,728.5938 Q2491.5156,726.9375 2491.5156,723.8125 Q2491.5156,720.6875 2492.8281,719.0313 Q2494.1563,717.375 2496.6563,717.375 Q2497.3594,717.375 2498,717.5313 Q2498.6563,717.6875 2499.2188,717.9844 L2499.2188,720.7031 Q2498.5938,720.125 2498,719.8594 Q2497.4063,719.5781 2496.7813,719.5781 Q2495.4375,719.5781 2494.75,720.6563 Q2494.0625,721.7188 2494.0625,723.8125 Q2494.0625,725.9063 2494.75,726.9844 Q2495.4375,728.0469 2496.7813,728.0469 Q2497.4063,728.0469 2498,727.7813 Q2498.5938,727.5 2499.2188,726.9219 L2499.2188,729.6406 Z " fill="#000000"/><text fill="#000000" font-family="sans-serif" font-size="14" lengthAdjust="spacing" textLength="129" x="2516.75" y="728.8467">MassSpectrometry</text><line style="stroke:#181818;stroke-width:0.5;" x1="2287" x2="2843" y1="740" y2="740"/><text fill="#000000" font-family="sans-serif" font-size="14" lengthAdjust="spacing" textLength="384" x="2292" y="756.9951">"acquisition_category": "AcquisitionCategoryEnum" [opt]</text><text fill="#000000" font-family="sans-serif" font-size="14" lengthAdjust="spacing" textLength="375" x="2292" y="773.292">"acquisition_strategy": "AcquisitionStrategyEnum" [opt]</text><text fill="#000000" font-family="sans-serif" font-size="14" lengthAdjust="spacing" textLength="378" x="2292" y="789.5889">"resolution_category": "ResolutionCategoryEnum" [opt]</text><text fill="#000000" font-family="sans-serif" font-size="14" lengthAdjust="spacing" textLength="301" x="2292" y="805.8857">"mass_analyzer": "MassAnalyzerEnum" [opt]</text><text fill="#000000" font-family="sans-serif" font-size="14" lengthAdjust="spacing" textLength="342" x="2292" y="822.1826">"ionization_source": "IonizationSourceEnum" [opt]</text><text fill="#000000" font-family="sans-serif" font-size="14" lengthAdjust="spacing" textLength="546" x="2292" y="838.4795">"mass_spectrum_collection_mode": "MassSpectrumCollectionModeEnum" [opt]</text><text fill="#000000" font-family="sans-serif" font-size="14" lengthAdjust="spacing" textLength="290" x="2292" y="854.7764">"polarity_mode": "PolarityModeEnum" [opt]</text><text fill="#000000" font-family="sans-serif" font-size="14" lengthAdjust="spacing" textLength="143" x="2292" y="871.0732">"id": "uriorcurie" [req]</text><text fill="#000000" font-family="sans-serif" font-size="14" lengthAdjust="spacing" textLength="182" x="2292" y="887.3701">"add_date"(i): "string" [opt]</text><text fill="#000000" font-family="sans-serif" font-size="14" lengthAdjust="spacing" textLength="347" x="2292" y="903.667">"analyte_category"(i): "AnalyteCategoryEnum" [req]</text><text fill="#000000" font-family="sans-serif" font-size="14" lengthAdjust="spacing" textLength="449" x="2292" y="919.9639">"gold_sequencing_project_identifiers"(i): "external_identifier" [0..*]</text><text fill="#000000" font-family="sans-serif" font-size="14" lengthAdjust="spacing" textLength="388" x="2292" y="936.2607">"insdc_bioproject_identifiers"(i): "external_identifier" [0..*]</text><text fill="#000000" font-family="sans-serif" font-size="14" lengthAdjust="spacing" textLength="397" x="2292" y="952.5576">"insdc_experiment_identifiers"(i): "external_identifier" [0..*]</text><text fill="#000000" font-family="sans-serif" font-size="14" lengthAdjust="spacing" textLength="187" x="2292" y="968.8545">"mod_date"(i): "string" [opt]</text><text fill="#000000" font-family="sans-serif" font-size="14" lengthAdjust="spacing" textLength="248" x="2292" y="985.1514">"ncbi_project_name"(i): "string" [opt]</text><text fill="#000000" font-family="sans-serif" font-size="14" lengthAdjust="spacing" textLength="416" x="2292" y="1001.4482">"processing_institution"(i): "ProcessingInstitutionEnum" [opt]</text><text fill="#000000" font-family="sans-serif" font-size="14" lengthAdjust="spacing" textLength="187" x="2292" y="1017.7451">"start_date"(i): "string" [opt]</text><text fill="#000000" font-family="sans-serif" font-size="14" lengthAdjust="spacing" textLength="183" x="2292" y="1034.042">"end_date"(i): "string" [opt]</text><text fill="#000000" font-family="sans-serif" font-size="14" lengthAdjust="spacing" textLength="230" x="2292" y="1050.3389">"qc_status"(i): "StatusEnum" [opt]</text><text fill="#000000" font-family="sans-serif" font-size="14" lengthAdjust="spacing" textLength="208" x="2292" y="1066.6357">"qc_comment"(i): "string" [opt]</text><text fill="#000000" font-family="sans-serif" font-size="14" lengthAdjust="spacing" textLength="157" x="2292" y="1082.9326">"name"(i): "string" [opt]</text><text fill="#000000" font-family="sans-serif" font-size="14" lengthAdjust="spacing" textLength="195" x="2292" y="1099.2295">"description"(i): "string" [opt]</text><text fill="#000000" font-family="sans-serif" font-size="14" lengthAdjust="spacing" textLength="290" x="2292" y="1115.5264">"alternative_identifiers"(i): "uriorcurie" [0..*]</text><text fill="#000000" font-family="sans-serif" font-size="14" lengthAdjust="spacing" textLength="174" x="2292" y="1131.8232">"type"(i): "uriorcurie" [req]</text><line style="stroke:#181818;stroke-width:0.5;" x1="2287" x2="2843" y1="1139.125" y2="1139.125"/></g><!--class DirectInfusionProcess--><g id="elem_DirectInfusionProcess"><rect codeLine="141" fill="#F1F1F1" height="48" id="DirectInfusionProcess" rx="2.5" ry="2.5" style="stroke:#181818;stroke-width:0.5;" width="183" x="1975.5" y="1672"/><ellipse cx="1990.5" cy="1688" fill="#ADD1B2" rx="11" ry="11" style="stroke:#181818;stroke-width:1.0;"/><path d="M1993.4688,1693.6406 Q1992.8906,1693.9375 1992.25,1694.0781 Q1991.6094,1694.2344 1990.9063,1694.2344 Q1988.4063,1694.2344 1987.0781,1692.5938 Q1985.7656,1690.9375 1985.7656,1687.8125 Q1985.7656,1684.6875 1987.0781,1683.0313 Q1988.4063,1681.375 1990.9063,1681.375 Q1991.6094,1681.375 1992.25,1681.5313 Q1992.9063,1681.6875 1993.4688,1681.9844 L1993.4688,1684.7031 Q1992.8438,1684.125 1992.25,1683.8594 Q1991.6563,1683.5781 1991.0313,1683.5781 Q1989.6875,1683.5781 1989,1684.6563 Q1988.3125,1685.7188 1988.3125,1687.8125 Q1988.3125,1689.9063 1989,1690.9844 Q1989.6875,1692.0469 1991.0313,1692.0469 Q1991.6563,1692.0469 1992.25,1691.7813 Q1992.8438,1691.5 1993.4688,1690.9219 L1993.4688,1693.6406 Z " fill="#000000"/><text fill="#000000" font-family="sans-serif" font-size="14" lengthAdjust="spacing" textLength="151" x="2004.5" y="1692.8467">DirectInfusionProcess</text><line style="stroke:#181818;stroke-width:0.5;" x1="1976.5" x2="2157.5" y1="1704" y2="1704"/><line style="stroke:#181818;stroke-width:0.5;" x1="1976.5" x2="2157.5" y1="1712" y2="1712"/></g><!--class DataObject--><g id="elem_DataObject"><rect codeLine="144" fill="#F1F1F1" height="48" id="DataObject" rx="2.5" ry="2.5" style="stroke:#181818;stroke-width:0.5;" width="109" x="2355.5" y="1903"/><ellipse cx="2370.5" cy="1919" fill="#ADD1B2" rx="11" ry="11" style="stroke:#181818;stroke-width:1.0;"/><path d="M2373.4688,1924.6406 Q2372.8906,1924.9375 2372.25,1925.0781 Q2371.6094,1925.2344 2370.9063,1925.2344 Q2368.4063,1925.2344 2367.0781,1923.5938 Q2365.7656,1921.9375 2365.7656,1918.8125 Q2365.7656,1915.6875 2367.0781,1914.0313 Q2368.4063,1912.375 2370.9063,1912.375 Q2371.6094,1912.375 2372.25,1912.5313 Q2372.9063,1912.6875 2373.4688,1912.9844 L2373.4688,1915.7031 Q2372.8438,1915.125 2372.25,1914.8594 Q2371.6563,1914.5781 2371.0313,1914.5781 Q2369.6875,1914.5781 2369,1915.6563 Q2368.3125,1916.7188 2368.3125,1918.8125 Q2368.3125,1920.9063 2369,1921.9844 Q2369.6875,1923.0469 2371.0313,1923.0469 Q2371.6563,1923.0469 2372.25,1922.7813 Q2372.8438,1922.5 2373.4688,1921.9219 L2373.4688,1924.6406 Z " fill="#000000"/><text fill="#000000" font-family="sans-serif" font-size="14" lengthAdjust="spacing" textLength="77" x="2384.5" y="1923.8467">DataObject</text><line style="stroke:#181818;stroke-width:0.5;" x1="2356.5" x2="2463.5" y1="1935" y2="1935"/><line style="stroke:#181818;stroke-width:0.5;" x1="2356.5" x2="2463.5" y1="1943" y2="1943"/></g><!--link SolutionComponent to QuantityValue--><g id="link_SolutionComponent_QuantityValue"><path codeLine="15" d="M2132,2129.1 C2132,2153.91 2132,2167.02 2132,2187.88 " fill="none" id="SolutionComponent-QuantityValue" style="stroke:#181818;stroke-width:1.0;"/><polygon fill="#181818" points="2132,2117.1,2128,2123.1,2132,2129.1,2136,2123.1,2132,2117.1" style="stroke:#181818;stroke-width:1.0;"/><polygon fill="#181818" points="2132,2193.88,2136,2184.88,2132,2188.88,2128,2184.88,2132,2193.88" style="stroke:#181818;stroke-width:1.0;"/><text fill="#000000" font-family="sans-serif" font-size="13" lengthAdjust="spacing" textLength="88" x="2133" y="2160.0669">concentration</text><text fill="#000000" font-family="sans-serif" font-size="13" lengthAdjust="spacing" textLength="24" x="2104.925" y="2182.8613">0..1</text></g><!--link Solution to SolutionComponent--><g id="link_Solution_SolutionComponent"><path codeLine="16" d="M2018.562,1967.5534 C2042.022,1989.8834 2060.7236,2007.6737 2085.9636,2031.6937 " fill="none" id="Solution-SolutionComponent" style="stroke:#181818;stroke-width:1.0;"/><polygon fill="#181818" points="2009.87,1959.28,2011.4582,1966.314,2018.562,1967.5534,2016.9738,1960.5193,2009.87,1959.28" style="stroke:#181818;stroke-width:1.0;"/><polygon fill="#181818" points="2090.31,2035.83,2086.548,2026.728,2086.688,2032.3831,2081.0329,2032.5231,2090.31,2035.83" style="stroke:#181818;stroke-width:1.0;"/><text fill="#000000" font-family="sans-serif" font-size="13" lengthAdjust="spacing" textLength="167" x="2055" y="2002.0669">has_solution_components</text><text fill="#000000" font-family="sans-serif" font-size="13" lengthAdjust="spacing" textLength="23" x="2058.5004" y="2024.9634">1..*</text></g><!--link Solution to QuantityValue--><g id="link_Solution_QuantityValue"><path codeLine="33" d="M1967.2881,1970.8191 C1959.6181,2010.2391 1954.55,2067.29 1982,2117 C2001.6,2152.48 2034.3678,2174.9982 2067.2878,2191.2182 " fill="none" id="Solution-QuantityValue" style="stroke:#181818;stroke-width:1.0;"/><polygon fill="#181818" points="1969.58,1959.04,1964.5077,1964.1656,1967.2881,1970.8191,1972.3604,1965.6935,1969.58,1959.04" style="stroke:#181818;stroke-width:1.0;"/><polygon fill="#181818" points="2072.67,2193.87,2066.3646,2186.3041,2068.1849,2191.6601,2062.8289,2193.4803,2072.67,2193.87" style="stroke:#181818;stroke-width:1.0;"/><text fill="#000000" font-family="sans-serif" font-size="13" lengthAdjust="spacing" textLength="47" x="1983" y="2081.0669">volume</text><text fill="#000000" font-family="sans-serif" font-size="13" lengthAdjust="spacing" textLength="24" x="2036.4102" y="2185.5119">0..1</text></g><!--link Extraction to Solution--><g id="link_Extraction_Solution"><path codeLine="34" d="M1257.8144,1233.5932 C1368.4244,1340.0932 1813.4776,1768.5687 1940.1076,1890.4787 " fill="none" id="Extraction-Solution" style="stroke:#181818;stroke-width:1.0;"/><polygon fill="#181818" points="1249.17,1225.27,1250.7178,1232.313,1257.8144,1233.5932,1256.2666,1226.5501,1249.17,1225.27" style="stroke:#181818;stroke-width:1.0;"/><polygon fill="#181818" points="1944.43,1894.64,1940.7206,1885.5164,1940.828,1891.1722,1935.1721,1891.2796,1944.43,1894.64" style="stroke:#181818;stroke-width:1.0;"/><text fill="#000000" font-family="sans-serif" font-size="13" lengthAdjust="spacing" textLength="66" x="1571" y="1524.5669">extractant</text><text fill="#000000" font-family="sans-serif" font-size="13" lengthAdjust="spacing" textLength="24" x="1911.6553" y="1883.8433">0..1</text></g><!--link ChromatographicSeparationProcess to Solution--><g id="link_ChromatographicSeparationProcess_Solution"><path codeLine="35" d="M2162.7557,1823.6889 C2143.6357,1833.7289 2135.28,1838.2 2117,1848 C2088.8,1863.12 2062.911,1877.4511 2037.191,1891.9011 " fill="none" id="ChromatographicSeparationProcess-Solution" style="stroke:#181818;stroke-width:1.0;"/><polygon fill="#181818" points="2173.38,1818.11,2166.2082,1817.358,2162.7557,1823.6889,2169.9275,1824.4409,2173.38,1818.11" style="stroke:#181818;stroke-width:1.0;"/><polygon fill="#181818" points="2031.96,1894.84,2041.7657,1893.919,2036.3191,1892.3909,2037.8472,1886.9444,2031.96,1894.84" style="stroke:#181818;stroke-width:1.0;"/><text fill="#000000" font-family="sans-serif" font-size="13" lengthAdjust="spacing" textLength="153" x="2118" y="1861.0669">ordered_mobile_phases</text><text fill="#000000" font-family="sans-serif" font-size="13" lengthAdjust="spacing" textLength="23" x="2017.9236" y="1883.7101">0..*</text></g><!--link DissolvingProcess to Solution--><g id="link_DissolvingProcess_Solution"><path codeLine="36" d="M1928.7438,1554.7927 C1924.3238,1563.8427 1925.22,1563.73 1923,1574 C1900.12,1680 1898.08,1712.46 1923,1818 C1929.5,1845.54 1941.088,1868.9161 1953.498,1889.7361 " fill="none" id="DissolvingProcess-Solution" style="stroke:#181818;stroke-width:1.0;"/><polygon fill="#181818" points="1934.01,1544.01,1927.7826,1547.6459,1928.7438,1554.7927,1934.9711,1551.1568,1934.01,1544.01" style="stroke:#181818;stroke-width:1.0;"/><polygon fill="#181818" points="1956.57,1894.89,1955.3979,1885.1111,1954.01,1890.5951,1948.526,1889.2072,1956.57,1894.89" style="stroke:#181818;stroke-width:1.0;"/><text fill="#000000" font-family="sans-serif" font-size="13" lengthAdjust="spacing" textLength="46" x="1924" y="1700.5669">solvent</text><text fill="#000000" font-family="sans-serif" font-size="13" lengthAdjust="spacing" textLength="8" x="1943.5313" y="1883.7704">1</text></g><!--link PlannedProcess to FailureCategorization--><g id="link_PlannedProcess_FailureCategorization"><path codeLine="71" d="M664.2066,352.8062 C657.0266,362.1262 658.05,362.53 653,373 C632.7,415.1 649.0501,465.2074 662.8901,495.9974 " fill="none" id="PlannedProcess-FailureCategorization" style="stroke:#181818;stroke-width:1.0;"/><polygon fill="#181818" points="671.53,343.3,664.6996,345.6119,664.2066,352.8062,671.037,350.4942,671.53,343.3" style="stroke:#181818;stroke-width:1.0;"/><polygon fill="#181818" points="665.35,501.47,665.3085,491.6212,663.3001,496.9095,658.0118,494.9011,665.35,501.47" style="stroke:#181818;stroke-width:1.0;"/><text fill="#000000" font-family="sans-serif" font-size="13" lengthAdjust="spacing" textLength="167" x="654" y="386.0669">has_failure_categorization</text><text fill="#000000" font-family="sans-serif" font-size="13" lengthAdjust="spacing" textLength="23" x="636.4178" y="490.4743">0..*</text></g><!--link PlannedProcess to Protocol--><g id="link_PlannedProcess_Protocol"><path codeLine="72" d="M603.7378,345.8592 C577.7478,360.1092 568.96,366.38 564,373 C535.47,411.09 531.9677,463.1911 532.5677,495.2511 " fill="none" id="PlannedProcess-Protocol" style="stroke:#181818;stroke-width:1.0;"/><polygon fill="#181818" points="614.26,340.09,607.0758,339.4672,603.7378,345.8592,610.922,346.482,614.26,340.09" style="stroke:#181818;stroke-width:1.0;"/><polygon fill="#181818" points="532.68,501.25,536.5109,492.1767,532.5864,496.2509,528.5123,492.3264,532.68,501.25" style="stroke:#181818;stroke-width:1.0;"/><text fill="#000000" font-family="sans-serif" font-size="13" lengthAdjust="spacing" textLength="80" x="565" y="386.0669">protocol_link</text><text fill="#000000" font-family="sans-serif" font-size="13" lengthAdjust="spacing" textLength="24" x="505.4333" y="490.594">0..1</text></g><!--link PlannedProcess to Instrument--><g id="link_PlannedProcess_Instrument"><path codeLine="73" d="M823.94,343.23 C824.27,358.91 824.63,374.88 825,390 C825.97,429 827.1755,468.3532 828.0455,495.1832 " fill="none" id="PlannedProcess-to-Instrument" style="stroke:#181818;stroke-width:1.0;"/><polygon fill="#181818" points="828.24,501.18,831.9462,492.0551,828.078,496.1826,823.9504,492.3144,828.24,501.18" style="stroke:#181818;stroke-width:1.0;"/><text fill="#000000" font-family="sans-serif" font-size="13" lengthAdjust="spacing" textLength="108" x="826" y="386.0669">instrument_used</text><text fill="#000000" font-family="sans-serif" font-size="13" lengthAdjust="spacing" textLength="23" x="802.2516" y="490.507">0..*</text></g><!--link PlannedProcess to NamedThing--><g id="link_PlannedProcess_NamedThing"><path codeLine="74" d="M918.87,343.04 C924.47,352.71 929.31,362.74 933,373 C935.56,380.11 935.35,382.82 933,390 C927.86,405.71 916.14,404.29 911,420 C881.82,509.12 897.76,538.16 911,631 C925.86,735.2 966.6097,848.4224 985.6097,897.6524 " fill="none" id="PlannedProcess-to-NamedThing" style="stroke:#181818;stroke-width:1.0;"/><polygon fill="#181818" points="987.77,903.25,988.2612,893.4134,985.9697,898.5854,980.7978,896.2939,987.77,903.25" style="stroke:#181818;stroke-width:1.0;"/><text fill="#000000" font-family="sans-serif" font-size="13" lengthAdjust="spacing" textLength="72" x="912" y="530.0669">has_output</text><text fill="#000000" font-family="sans-serif" font-size="13" lengthAdjust="spacing" textLength="23" x="959.7171" y="892.594">0..*</text></g><!--link PlannedProcess to NamedThing--><g id="link_PlannedProcess_NamedThing"><path codeLine="75" d="M936.3,343.29 C955.2,366.59 972.16,392.58 983,420 C1000.88,465.2 998.3862,803.8304 997.3562,897.2204 " fill="none" id="PlannedProcess-to-NamedThing-1" style="stroke:#181818;stroke-width:1.0;"/><polygon fill="#181818" points="997.29,903.22,1001.389,894.2647,997.3451,898.2203,993.3895,894.1764,997.29,903.22" style="stroke:#181818;stroke-width:1.0;"/><text fill="#000000" font-family="sans-serif" font-size="13" lengthAdjust="spacing" textLength="62" x="998" y="530.0669">has_input</text><text fill="#000000" font-family="sans-serif" font-size="13" lengthAdjust="spacing" textLength="23" x="1000.1638" y="892.5567">0..*</text></g><!--reverse link NamedThing to PlannedProcess--><g id="link_NamedThing_PlannedProcess"><path codeLine="84" d="M997.7507,885.4967 C999.0407,838.1967 1005.47,745.4 1041,661 C1047.42,645.76 1057.86,646.71 1063,631 C1092.18,541.88 1104.86,503.92 1063,420 C1048.51,390.94 1026.9,365.31 1002.47,343.15 " fill="none" id="NamedThing-backto-PlannedProcess" style="stroke:#181818;stroke-width:1.0;"/><polygon fill="none" points="997.26,903.49,1003.7485,885.6603,991.753,885.3331,997.26,903.49" style="stroke:#181818;stroke-width:1.0;"/></g><!--link ProtocolExecution to PlannedProcess--><g id="link_ProtocolExecution_PlannedProcess"><path codeLine="76" d="M271.05,501.5 C292.7,465.98 339.8,399.15 401,373 C486.89,336.3 519.76,370.57 609,343 C610.77,342.45 606.8388,343.7292 608.6088,343.1592 " fill="none" id="ProtocolExecution-to-PlannedProcess" style="stroke:#181818;stroke-width:1.0;"/><polygon fill="#181818" points="614.32,341.32,604.5271,340.2713,609.5607,342.8527,606.9794,347.8862,614.32,341.32" style="stroke:#181818;stroke-width:1.0;"/><text fill="#000000" font-family="sans-serif" font-size="13" lengthAdjust="spacing" textLength="120" x="402" y="386.0669">has_process_parts</text><text fill="#000000" font-family="sans-serif" font-size="13" lengthAdjust="spacing" textLength="23" x="583.4432" y="341.8513">1..*</text></g><!--reverse link PlannedProcess to ProtocolExecution--><g id="link_PlannedProcess_ProtocolExecution"><path codeLine="80" d="M597.1423,346.6839 C494.5723,377.3439 462.39,318.92 370,373 C318.62,403.07 283.69,466.96 267.79,501.38 " fill="none" id="PlannedProcess-backto-ProtocolExecution" style="stroke:#181818;stroke-width:1.0;"/><polygon fill="none" points="614.34,341.37,595.371,340.9513,598.9136,352.4165,614.34,341.37" style="stroke:#181818;stroke-width:1.0;"/></g><!--link Database to PlannedProcess--><g id="link_Database_PlannedProcess"><path codeLine="77" d="M822,67.06 C822,86.18 822,96.81 822,125.71 " fill="none" id="Database-PlannedProcess" style="stroke:#181818;stroke-width:1.0;"/><polygon fill="#181818" points="822,55.06,818,61.06,822,67.06,826,61.06,822,55.06" style="stroke:#181818;stroke-width:1.0;"/><polygon fill="#181818" points="822,131.71,826,122.71,822,126.71,818,122.71,822,131.71" style="stroke:#181818;stroke-width:1.0;"/><text fill="#000000" font-family="sans-serif" font-size="13" lengthAdjust="spacing" textLength="135" x="823" y="98.0669">planned_process_set</text><text fill="#000000" font-family="sans-serif" font-size="13" lengthAdjust="spacing" textLength="23" x="798.1914" y="120.817">0..*</text></g><!--reverse link PlannedProcess to WorkflowExecution--><g id="link_PlannedProcess_WorkflowExecution"><path codeLine="78" d="M597.1439,346.6768 C408.7439,401.9268 338.98,313.55 174,420 C141.82,440.76 115.75,477.45 101.06,501.37 " fill="none" id="PlannedProcess-backto-WorkflowExecution" style="stroke:#181818;stroke-width:1.0;"/><polygon fill="none" points="614.35,341.39,595.3816,340.9414,598.9062,352.4122,614.35,341.39" style="stroke:#181818;stroke-width:1.0;"/></g><!--reverse link PlannedProcess to WorkflowChain--><g id="link_PlannedProcess_WorkflowChain"><path codeLine="79" d="M598.3269,348.9812 C572.9869,361.9512 567.38,365.19 554,373 C521.63,391.89 510.57,393.58 484,420 C459.27,444.59 437.87,478.95 425.21,501.45 " fill="none" id="PlannedProcess-backto-WorkflowChain" style="stroke:#181818;stroke-width:1.0;"/><polygon fill="none" points="614.35,340.78,595.5932,343.6402,601.0607,354.3223,614.35,340.78" style="stroke:#181818;stroke-width:1.0;"/></g><!--reverse link PlannedProcess to MaterialProcessing--><g id="link_PlannedProcess_MaterialProcessing"><path codeLine="81" d="M1046.1772,337.4386 C1118.4472,369.3386 1183.17,397.9 1255.95,430.03 " fill="none" id="PlannedProcess-backto-MaterialProcessing" style="stroke:#181818;stroke-width:1.0;"/><polygon fill="none" points="1029.71,330.17,1043.7543,342.9277,1048.6,331.9496,1029.71,330.17" style="stroke:#181818;stroke-width:1.0;"/></g><!--reverse link PlannedProcess to DataGeneration--><g id="link_PlannedProcess_DataGeneration"><path codeLine="82" d="M1047.7188,267.0067 C1268.4288,297.6667 1582.07,350.83 1689,420 C1719.89,439.98 1742.39,477.25 1754.58,501.45 " fill="none" id="PlannedProcess-backto-DataGeneration" style="stroke:#181818;stroke-width:1.0;"/><polygon fill="none" points="1029.89,264.53,1046.8932,272.9496,1048.5444,261.0638,1029.89,264.53" style="stroke:#181818;stroke-width:1.0;"/></g><!--reverse link PlannedProcess to CollectingBiosamplesFromSite--><g id="link_PlannedProcess_CollectingBiosamplesFromSite"><path codeLine="83" d="M1047.723,243.7764 C1261.093,255.4864 1579.97,293.69 1841,420 C1882.5,440.08 1921.83,476.96 1944.93,501.1 " fill="none" id="PlannedProcess-backto-CollectingBiosamplesFromSite" style="stroke:#181818;stroke-width:1.0;"/><polygon fill="none" points="1029.75,242.79,1047.3942,249.7674,1048.0517,237.7854,1029.75,242.79" style="stroke:#181818;stroke-width:1.0;"/></g><!--link MaterialProcessing to ProcessedSample--><g id="link_MaterialProcessing_ProcessedSample"><path codeLine="102" d="M1684.18,629.36 C1686.12,629.92 1688.06,630.47 1690,631 C1760.38,650.29 1959.93,615.52 2017,661 C2093.25,721.76 2103.3042,844.7808 2104.1442,897.4108 " fill="none" id="MaterialProcessing-to-ProcessedSample" style="stroke:#181818;stroke-width:1.0;"/><polygon fill="#181818" points="2104.24,903.41,2108.0959,894.3473,2104.1602,898.4106,2100.0969,894.475,2104.24,903.41" style="stroke:#181818;stroke-width:1.0;"/><text fill="#000000" font-family="sans-serif" font-size="13" lengthAdjust="spacing" textLength="72" x="2034" y="674.0669">has_output</text><text fill="#000000" font-family="sans-serif" font-size="13" lengthAdjust="spacing" textLength="23" x="2078.3546" y="892.399">0..*</text></g><!--link MaterialProcessing to NamedThing--><g id="link_MaterialProcessing_NamedThing"><path codeLine="103" d="M1255.92,574.54 C1169.02,598.19 1082.21,628.57 1053,661 C990.25,730.65 990.8027,846.4645 994.3427,897.2445 " fill="none" id="MaterialProcessing-to-NamedThing" style="stroke:#181818;stroke-width:1.0;"/><polygon fill="#181818" points="994.76,903.23,998.1244,893.9736,994.4123,898.2421,990.1438,894.53,994.76,903.23" style="stroke:#181818;stroke-width:1.0;"/><text fill="#000000" font-family="sans-serif" font-size="13" lengthAdjust="spacing" textLength="62" x="1054" y="674.0669">has_input</text><text fill="#000000" font-family="sans-serif" font-size="13" lengthAdjust="spacing" textLength="23" x="968.4109" y="892.5691">0..*</text></g><!--reverse link MaterialProcessing to SubSamplingProcess--><g id="link_MaterialProcessing_SubSamplingProcess"><path codeLine="104" d="M1692.2744,640.0872 C1741.3844,667.8872 1769.31,687.08 1788,708 C1840.83,767.12 1867.29,860.47 1877.22,903.45 " fill="none" id="MaterialProcessing-backto-SubSamplingProcess" style="stroke:#181818;stroke-width:1.0;"/><polygon fill="none" points="1676.61,631.22,1689.3186,645.3087,1695.2301,634.8658,1676.61,631.22" style="stroke:#181818;stroke-width:1.0;"/></g><!--reverse link MaterialProcessing to Pooling--><g id="link_MaterialProcessing_Pooling"><path codeLine="105" d="M1701.5071,634.2238 C1882.0571,681.7638 1930.87,605.1 2109,661 C2147.98,673.23 2164.24,674.77 2188,708 C2231.18,768.38 2235.5,860.7 2234.93,903.38 " fill="none" id="MaterialProcessing-backto-Pooling" style="stroke:#181818;stroke-width:1.0;"/><polygon fill="none" points="1684.16,629.42,1699.9059,640.0062,1703.1084,628.4414,1684.16,629.42" style="stroke:#181818;stroke-width:1.0;"/></g><!--reverse link MaterialProcessing to MixingProcess--><g id="link_MaterialProcessing_MixingProcess"><path codeLine="106" d="M1287.0133,642.5546 C1259.5133,665.2746 1247.32,679.64 1227,708 C1182.63,769.93 1164.94,861.08 1158.83,903.37 " fill="none" id="MaterialProcessing-backto-MixingProcess" style="stroke:#181818;stroke-width:1.0;"/><polygon fill="none" points="1300.89,631.09,1283.1918,637.9291,1290.8349,647.1802,1300.89,631.09" style="stroke:#181818;stroke-width:1.0;"/></g><!--reverse link MaterialProcessing to LibraryPreparation--><g id="link_MaterialProcessing_LibraryPreparation"><path codeLine="107" d="M1416.9826,647.816 C1406.2526,672.866 1402.1,683.04 1392,708 C1363.39,778.72 1332.04,863.41 1317.4,903.41 " fill="none" id="MaterialProcessing-backto-LibraryPreparation" style="stroke:#181818;stroke-width:1.0;"/><polygon fill="none" points="1424.07,631.27,1411.4673,645.4535,1422.498,650.1784,1424.07,631.27" style="stroke:#181818;stroke-width:1.0;"/></g><!--reverse link MaterialProcessing to FluidHandling--><g id="link_MaterialProcessing_FluidHandling"><path codeLine="108" d="M1701.457,634.3902 C1767.077,652.6002 1947.93,611.78 1995,661 C2032.38,700.08 1997.14,1098.47 2021,1147 C2041.15,1187.99 2073.17,1224.27 2107.55,1254.72 " fill="none" id="MaterialProcessing-backto-FluidHandling" style="stroke:#181818;stroke-width:1.0;"/><polygon fill="none" points="1684.18,629.34,1699.7736,640.1492,1703.1404,628.6312,1684.18,629.34" style="stroke:#181818;stroke-width:1.0;"/></g><!--reverse link MaterialProcessing to FiltrationProcess--><g id="link_MaterialProcessing_FiltrationProcess"><path codeLine="109" d="M1470,649.07 C1470,741.43 1470,851.25 1470,903.18 " fill="none" id="MaterialProcessing-backto-FiltrationProcess" style="stroke:#181818;stroke-width:1.0;"/><polygon fill="none" points="1470,631.07,1464,649.07,1476,649.07,1470,631.07" style="stroke:#181818;stroke-width:1.0;"/></g><!--reverse link MaterialProcessing to Extraction--><g id="link_MaterialProcessing_Extraction"><path codeLine="110" d="M1239.2078,611.1959 C1163.0678,643.4759 1107.41,674.21 1086,708 C1059.9,749.21 1058.33,1106.83 1086,1147 C1105.85,1175.82 1143.63,1188.98 1174.8,1194.98 " fill="none" id="MaterialProcessing-backto-Extraction" style="stroke:#181818;stroke-width:1.0;"/><polygon fill="none" points="1255.78,604.17,1236.8659,605.6718,1241.5498,616.7199,1255.78,604.17" style="stroke:#181818;stroke-width:1.0;"/></g><!--reverse link MaterialProcessing to DissolvingProcess--><g id="link_MaterialProcessing_DissolvingProcess"><path codeLine="111" d="M1700.8561,635.1639 C1824.3661,680.7039 1895.93,603.52 1976,708 C2025.06,772.02 1963.14,1370.46 1949.54,1495.98 " fill="none" id="MaterialProcessing-backto-DissolvingProcess" style="stroke:#181818;stroke-width:1.0;"/><polygon fill="none" points="1684.03,628.77,1698.7248,640.7726,1702.9874,629.5552,1684.03,628.77" style="stroke:#181818;stroke-width:1.0;"/></g><!--reverse link MaterialProcessing to ChemicalConversionProcess--><g id="link_MaterialProcessing_ChemicalConversionProcess"><path codeLine="112" d="M1529.7455,647.2017 C1575.4655,739.5617 1630.75,851.25 1656.46,903.18 " fill="none" id="MaterialProcessing-backto-ChemicalConversionProcess" style="stroke:#181818;stroke-width:1.0;"/><polygon fill="none" points="1521.76,631.07,1524.3683,649.8635,1535.1227,644.5399,1521.76,631.07" style="stroke:#181818;stroke-width:1.0;"/></g><!--link MassSpectrometry to FluidHandling--><g id="link_MassSpectrometry_FluidHandling"><path codeLine="139" d="M2414.32,1147.16 C2388.48,1184.66 2366.1245,1217.0994 2343.5845,1249.8094 " fill="none" id="MassSpectrometry-to-FluidHandling" style="stroke:#181818;stroke-width:1.0;"/><polygon fill="#181818" points="2340.18,1254.75,2348.5805,1249.6088,2343.0171,1250.6328,2341.993,1245.0695,2340.18,1254.75" style="stroke:#181818;stroke-width:1.0;"/><text fill="#000000" font-family="sans-serif" font-size="13" lengthAdjust="spacing" textLength="123" x="2390" y="1205.5669">eluent_introduction</text><text fill="#000000" font-family="sans-serif" font-size="13" lengthAdjust="spacing" textLength="24" x="2320.4114" y="1243.8598">0..1</text></g><!--reverse link DataGeneration to MassSpectrometry--><g id="link_DataGeneration_MassSpectrometry"><path codeLine="140" d="M1782.5511,565.9904 C1794.3411,590.7404 1808.9,612.58 1841,631 C1898.92,664.24 2074.7,647.02 2140,661 C2204.59,674.83 2222.68,676.98 2281,708 C2282.65,708.88 2284.3,709.76 2285.94,710.66 " fill="none" id="DataGeneration-backto-MassSpectrometry" style="stroke:#181818;stroke-width:1.0;"/><polygon fill="none" points="1774.81,549.74,1777.1343,568.5708,1787.9679,563.41,1774.81,549.74" style="stroke:#181818;stroke-width:1.0;"/></g><!--reverse link FluidHandling to DirectInfusionProcess--><g id="link_FluidHandling_DirectInfusionProcess"><path codeLine="142" d="M2195.6585,1481.5265 C2151.9085,1554.1165 2106.4,1629.62 2081.06,1671.68 " fill="none" id="FluidHandling-backto-DirectInfusionProcess" style="stroke:#181818;stroke-width:1.0;"/><polygon fill="none" points="2204.95,1466.11,2190.5197,1478.4293,2200.7973,1484.6236,2204.95,1466.11" style="stroke:#181818;stroke-width:1.0;"/></g><!--reverse link FluidHandling to ChromatographicSeparationProcess--><g id="link_FluidHandling_ChromatographicSeparationProcess"><path codeLine="143" d="M2319.5925,1482.6709 C2334.1525,1516.8609 2343.39,1538.56 2358.42,1573.87 " fill="none" id="FluidHandling-backto-ChromatographicSeparationProcess" style="stroke:#181818;stroke-width:1.0;"/><polygon fill="none" points="2312.54,1466.11,2314.0722,1485.0217,2325.1128,1480.32,2312.54,1466.11" style="stroke:#181818;stroke-width:1.0;"/></g><!--link ChromatographicSeparationProcess to QuantityValue--><g id="link_ChromatographicSeparationProcess_QuantityValue"><path codeLine="145" d="M2368.1447,1829.4373 C2328.7047,1949.1373 2270.27,2110.56 2224,2164 C2213.62,2175.98 2205.0448,2182.915 2191.3048,2190.795 " fill="none" id="ChromatographicSeparationProcess-QuantityValue" style="stroke:#181818;stroke-width:1.0;"/><polygon fill="#181818" points="2371.9,1818.04,2366.2233,1822.4869,2368.1447,1829.4373,2373.8214,1824.9904,2371.9,1818.04" style="stroke:#181818;stroke-width:1.0;"/><polygon fill="#181818" points="2186.1,2193.78,2195.8972,2192.7724,2190.4373,2191.2925,2191.9172,2185.8327,2186.1,2193.78" style="stroke:#181818;stroke-width:1.0;"/><text fill="#000000" font-family="sans-serif" font-size="13" lengthAdjust="spacing" textLength="81" x="2310" y="2002.0669">temperature</text><text fill="#000000" font-family="sans-serif" font-size="13" lengthAdjust="spacing" textLength="24" x="2172.3619" y="2183.1313">0..1</text></g><!--link ChromatographicSeparationProcess to DataObject--><g id="link_ChromatographicSeparationProcess_DataObject"><path codeLine="146" d="M2410,1818.21 C2410,1850.61 2410,1876.29 2410,1896.83 " fill="none" id="ChromatographicSeparationProcess-to-DataObject" style="stroke:#181818;stroke-width:1.0;"/><polygon fill="#181818" points="2410,1902.83,2414,1893.83,2410,1897.83,2406,1893.83,2410,1902.83" style="stroke:#181818;stroke-width:1.0;"/><text fill="#000000" font-family="sans-serif" font-size="13" lengthAdjust="spacing" textLength="96" x="2411" y="1861.0669">has_calibration</text><text fill="#000000" font-family="sans-serif" font-size="13" lengthAdjust="spacing" textLength="24" x="2382.925" y="1891.7985">0..1</text></g><!--SRC=[xLXBRzms4BxxLmWwjGPinDSS2hXRkpLGjzjkq1wALk2Iz2vhYfJvS7SJvBzdg2T5aLePwIM1VJ2mms-6m-7CDqFfHoOgf52P2KcefbLszUOCSwHrblyfrUC3b__T72YsXacHXokhFMA3z1qzc3yGjxINREnsWygACx5RAucfriEIiUGu_9Aytc4boqeAAaoUVJZBuE_30wESVCnox5Qi8FdRBDT6WSKy-qlHfx_7C7Eig8DOnQJ2y9zsi8_TNhzP90mpny3LreF9ndCMOtwVNrnyb-LlBY-lyd2lxAqxXy20KwW9gBTletXrUNcUHmC2odka2zsk5BXR6e9wSm33U7HLgxsI9J9ofr2rPtX3tMqxH7SXaq2F5GgC3Dr9TNGn28ojsgKROKi8YgnCS1lQr5iXTImgyBsEuwQNhPqegSj8FEeZKDKS0hAXO493f9jOViE-1TrrltWthCtvgan1u4YjUfzbKomLP27o2HSk25Qtq4tz8-a4mE5QItVV9qqBL2vm08eQArPvOPa18swe4d0_pxHW1BnWiA8wtqTt0Gb-7gkz27HSVZym3Idyx5F2f0YIrVCCG3ZrcP_fOvt15C1fWm8he7Aw4df3vw4XgGXLb1Ibt39EcsHsZayFqvLnQC71tBLsOG2yaLZoARbsAxx0cQQavjA1ijPIEcRDpz1Mr-S44KT2K9AgxKIvV4wjB2oKfLNoeXAPDme4aah6hw6ERX7ZLj6MWzbxD4eYTulArb7oqkCNE2fvjw-JfYj7PD3MKNCdk0U3YY4-PCGaZLwf-IkZvY53N3hyI0LLutHQISufqAtOVS-ahcb8tmATRfXnR1pIpeX8uudQZJCFpMetPlHvdBRfgBNdI6UcQdyKm8QF4KtV6Qykd2hhVnOM2FQ4ibS-dVlIcigQb-l1rDseJTf0ve-1eTLMkwsj0ZgOgTjGLyJZo4UqgqRKMz0qvlm_5nVHyNyUsBu6ug18lui38_oJG8Qv6aUTI5t_RXf7nqRwPWl59iNupN3F3f6NpSzigznqg_e1mwVWMsuP-Ga9mXFCkgXdlPBhbzUl6JVZUNDuej6IOSHNKZp3hZuYser79HxCXXDUEcLWXfjYgdM9n9xrQNG_fgOXGI6bWR7QIgF7jJO7dDvD6km_ijEes3Cd2Px9W7ugqtfJ0Oy1Sr43h_6GEH1-iaopvik0zsI_7kGdd-k-3STN00zjR5fnqeQYmmSAputVU_59BqeuQe44uiVtL3bTT_RhzdVwSu4KxUnGQ6aLhfySTxrmKylczzHrV6q9LDIq3B1LIa8x7pRj-gfVleVLfCrASgJWzThRMBU2MQr5ipKYItcuZgEXmrqq6jUDEBYBwKOxoGdC24-M2koQ3VITV-7e4PA4fxQZKEujnTaI-XN1nPR9_yqMFLHGLlKGzncsu9OMnbJWBUiZiQmRlVRhBwTVHxZMVte40vnBCPW9NUu9K22swmp1TDeDju7fuQkO0kcTUB3Z_X_irhQMvTYJ7xtyxm2_RbrAl-nJMVmxdQ5bvKuEBxj5vdnhdYVTH0AjqJN-Ef2V0000]--></g></svg>