<?xml version="1.0" encoding="us-ascii" standalone="no"?><svg xmlns="http://www.w3.org/2000/svg" xmlns:xlink="http://www.w3.org/1999/xlink" contentStyleType="text/css" height="1579px" preserveAspectRatio="none" style="width:1222px;height:1579px;background:#FFFFFF;" version="1.1" viewBox="0 0 1222 1579" width="1222px" zoomAndPan="magnify"><defs/><g><!--class TextValue--><g id="elem_TextValue"><rect codeLine="2" fill="#F1F1F1" height="48" id="TextValue" rx="2.5" ry="2.5" style="stroke:#181818;stroke-width:0.5;" width="100" x="35.5" y="7"/><ellipse cx="50.5" cy="23" fill="#ADD1B2" rx="11" ry="11" style="stroke:#181818;stroke-width:1.0;"/><path d="M53.4688,28.6406 Q52.8906,28.9375 52.25,29.0781 Q51.6094,29.2344 50.9063,29.2344 Q48.4063,29.2344 47.0781,27.5938 Q45.7656,25.9375 45.7656,22.8125 Q45.7656,19.6875 47.0781,18.0313 Q48.4063,16.375 50.9063,16.375 Q51.6094,16.375 52.25,16.5313 Q52.9063,16.6875 53.4688,16.9844 L53.4688,19.7031 Q52.8438,19.125 52.25,18.8594 Q51.6563,18.5781 51.0313,18.5781 Q49.6875,18.5781 49,19.6563 Q48.3125,20.7188 48.3125,22.8125 Q48.3125,24.9063 49,25.9844 Q49.6875,27.0469 51.0313,27.0469 Q51.6563,27.0469 52.25,26.7813 Q52.8438,26.5 53.4688,25.9219 L53.4688,28.6406 Z " fill="#000000"/><text fill="#000000" font-family="sans-serif" font-size="14" lengthAdjust="spacing" textLength="68" x="64.5" y="27.8467">TextValue</text><line style="stroke:#181818;stroke-width:0.5;" x1="36.5" x2="134.5" y1="39" y2="39"/><line style="stroke:#181818;stroke-width:0.5;" x1="36.5" x2="134.5" y1="47" y2="47"/></g><!--class Study--><g id="elem_Study"><rect codeLine="3" fill="#F1F1F1" height="48" id="Study" rx="2.5" ry="2.5" style="stroke:#181818;stroke-width:0.5;" width="71" x="146" y="7"/><ellipse cx="161" cy="23" fill="#ADD1B2" rx="11" ry="11" style="stroke:#181818;stroke-width:1.0;"/><path d="M163.9688,28.6406 Q163.3906,28.9375 162.75,29.0781 Q162.1094,29.2344 161.4063,29.2344 Q158.9063,29.2344 157.5781,27.5938 Q156.2656,25.9375 156.2656,22.8125 Q156.2656,19.6875 157.5781,18.0313 Q158.9063,16.375 161.4063,16.375 Q162.1094,16.375 162.75,16.5313 Q163.4063,16.6875 163.9688,16.9844 L163.9688,19.7031 Q163.3438,19.125 162.75,18.8594 Q162.1563,18.5781 161.5313,18.5781 Q160.1875,18.5781 159.5,19.6563 Q158.8125,20.7188 158.8125,22.8125 Q158.8125,24.9063 159.5,25.9844 Q160.1875,27.0469 161.5313,27.0469 Q162.1563,27.0469 162.75,26.7813 Q163.3438,26.5 163.9688,25.9219 L163.9688,28.6406 Z " fill="#000000"/><text fill="#000000" font-family="sans-serif" font-size="14" lengthAdjust="spacing" textLength="39" x="175" y="27.8467">Study</text><line style="stroke:#181818;stroke-width:0.5;" x1="147" x2="216" y1="39" y2="39"/><line style="stroke:#181818;stroke-width:0.5;" x1="147" x2="216" y1="47" y2="47"/></g><!--class SolutionComponent--><g id="elem_SolutionComponent"><rect codeLine="4" fill="#F1F1F1" height="80.5938" id="SolutionComponent" rx="2.5" ry="2.5" style="stroke:#181818;stroke-width:0.5;" width="192" x="681.5" y="1366"/><ellipse cx="706.4" cy="1382" fill="#ADD1B2" rx="11" ry="11" style="stroke:#181818;stroke-width:1.0;"/><path d="M709.3688,1387.6406 Q708.7906,1387.9375 708.15,1388.0781 Q707.5094,1388.2344 706.8063,1388.2344 Q704.3063,1388.2344 702.9781,1386.5938 Q701.6656,1384.9375 701.6656,1381.8125 Q701.6656,1378.6875 702.9781,1377.0313 Q704.3063,1375.375 706.8063,1375.375 Q707.5094,1375.375 708.15,1375.5313 Q708.8063,1375.6875 709.3688,1375.9844 L709.3688,1378.7031 Q708.7438,1378.125 708.15,1377.8594 Q707.5563,1377.5781 706.9313,1377.5781 Q705.5875,1377.5781 704.9,1378.6563 Q704.2125,1379.7188 704.2125,1381.8125 Q704.2125,1383.9063 704.9,1384.9844 Q705.5875,1386.0469 706.9313,1386.0469 Q707.5563,1386.0469 708.15,1385.7813 Q708.7438,1385.5 709.3688,1384.9219 L709.3688,1387.6406 Z " fill="#000000"/><text fill="#000000" font-family="sans-serif" font-size="14" lengthAdjust="spacing" textLength="138" x="722.6" y="1386.8467">SolutionComponent</text><line style="stroke:#181818;stroke-width:0.5;" x1="682.5" x2="872.5" y1="1398" y2="1398"/><text fill="#000000" font-family="sans-serif" font-size="14" lengthAdjust="spacing" textLength="180" x="687.5" y="1414.9951">"compound": "string" [req]</text><text fill="#000000" font-family="sans-serif" font-size="14" lengthAdjust="spacing" textLength="161" x="687.5" y="1431.292">"type": "uriorcurie" [req]</text><line style="stroke:#181818;stroke-width:0.5;" x1="682.5" x2="872.5" y1="1438.5938" y2="1438.5938"/></g><!--class QuantityValue--><g id="elem_QuantityValue"><rect codeLine="8" fill="#F1F1F1" height="48" id="QuantityValue" rx="2.5" ry="2.5" style="stroke:#181818;stroke-width:0.5;" width="127" x="714" y="1524"/><ellipse cx="729" cy="1540" fill="#ADD1B2" rx="11" ry="11" style="stroke:#181818;stroke-width:1.0;"/><path d="M731.9688,1545.6406 Q731.3906,1545.9375 730.75,1546.0781 Q730.1094,1546.2344 729.4063,1546.2344 Q726.9063,1546.2344 725.5781,1544.5938 Q724.2656,1542.9375 724.2656,1539.8125 Q724.2656,1536.6875 725.5781,1535.0313 Q726.9063,1533.375 729.4063,1533.375 Q730.1094,1533.375 730.75,1533.5313 Q731.4063,1533.6875 731.9688,1533.9844 L731.9688,1536.7031 Q731.3438,1536.125 730.75,1535.8594 Q730.1563,1535.5781 729.5313,1535.5781 Q728.1875,1535.5781 727.5,1536.6563 Q726.8125,1537.7188 726.8125,1539.8125 Q726.8125,1541.9063 727.5,1542.9844 Q728.1875,1544.0469 729.5313,1544.0469 Q730.1563,1544.0469 730.75,1543.7813 Q731.3438,1543.5 731.9688,1542.9219 L731.9688,1545.6406 Z " fill="#000000"/><text fill="#000000" font-family="sans-serif" font-size="14" lengthAdjust="spacing" textLength="95" x="743" y="1544.8467">QuantityValue</text><line style="stroke:#181818;stroke-width:0.5;" x1="715" x2="840" y1="1556" y2="1556"/><line style="stroke:#181818;stroke-width:0.5;" x1="715" x2="840" y1="1564" y2="1564"/></g><!--class Solution--><g id="elem_Solution"><rect codeLine="9" fill="#F1F1F1" height="64.2969" id="Solution" rx="2.5" ry="2.5" style="stroke:#181818;stroke-width:0.5;" width="173" x="536" y="1225"/><ellipse cx="590.25" cy="1241" fill="#ADD1B2" rx="11" ry="11" style="stroke:#181818;stroke-width:1.0;"/><path d="M593.2188,1246.6406 Q592.6406,1246.9375 592,1247.0781 Q591.3594,1247.2344 590.6563,1247.2344 Q588.1563,1247.2344 586.8281,1245.5938 Q585.5156,1243.9375 585.5156,1240.8125 Q585.5156,1237.6875 586.8281,1236.0313 Q588.1563,1234.375 590.6563,1234.375 Q591.3594,1234.375 592,1234.5313 Q592.6563,1234.6875 593.2188,1234.9844 L593.2188,1237.7031 Q592.5938,1237.125 592,1236.8594 Q591.4063,1236.5781 590.7813,1236.5781 Q589.4375,1236.5781 588.75,1237.6563 Q588.0625,1238.7188 588.0625,1240.8125 Q588.0625,1242.9063 588.75,1243.9844 Q589.4375,1245.0469 590.7813,1245.0469 Q591.4063,1245.0469 592,1244.7813 Q592.5938,1244.5 593.2188,1243.9219 L593.2188,1246.6406 Z " fill="#000000"/><text fill="#000000" font-family="sans-serif" font-size="14" lengthAdjust="spacing" textLength="56" x="610.75" y="1245.8467">Solution</text><line style="stroke:#181818;stroke-width:0.5;" x1="537" x2="708" y1="1257" y2="1257"/><text fill="#000000" font-family="sans-serif" font-size="14" lengthAdjust="spacing" textLength="161" x="542" y="1273.9951">"type": "uriorcurie" [req]</text><line style="stroke:#181818;stroke-width:0.5;" x1="537" x2="708" y1="1281.2969" y2="1281.2969"/></g><!--class Extraction--><g id="elem_Extraction"><rect codeLine="14" fill="#F1F1F1" height="48" id="Extraction" rx="2.5" ry="2.5" style="stroke:#181818;stroke-width:0.5;" width="100" x="260.5" y="1002"/><ellipse cx="275.5" cy="1018" fill="#ADD1B2" rx="11" ry="11" style="stroke:#181818;stroke-width:1.0;"/><path d="M278.4688,1023.6406 Q277.8906,1023.9375 277.25,1024.0781 Q276.6094,1024.2344 275.9063,1024.2344 Q273.4063,1024.2344 272.0781,1022.5938 Q270.7656,1020.9375 270.7656,1017.8125 Q270.7656,1014.6875 272.0781,1013.0313 Q273.4063,1011.375 275.9063,1011.375 Q276.6094,1011.375 277.25,1011.5313 Q277.9063,1011.6875 278.4688,1011.9844 L278.4688,1014.7031 Q277.8438,1014.125 277.25,1013.8594 Q276.6563,1013.5781 276.0313,1013.5781 Q274.6875,1013.5781 274,1014.6563 Q273.3125,1015.7188 273.3125,1017.8125 Q273.3125,1019.9063 274,1020.9844 Q274.6875,1022.0469 276.0313,1022.0469 Q276.6563,1022.0469 277.25,1021.7813 Q277.8438,1021.5 278.4688,1020.9219 L278.4688,1023.6406 Z " fill="#000000"/><text fill="#000000" font-family="sans-serif" font-size="14" lengthAdjust="spacing" textLength="68" x="289.5" y="1022.8467">Extraction</text><line style="stroke:#181818;stroke-width:0.5;" x1="261.5" x2="359.5" y1="1034" y2="1034"/><line style="stroke:#181818;stroke-width:0.5;" x1="261.5" x2="359.5" y1="1042" y2="1042"/></g><!--class ChromatographicSeparationProcess--><g id="elem_ChromatographicSeparationProcess"><rect codeLine="15" fill="#F1F1F1" height="243.5625" id="ChromatographicSeparationProcess" rx="2.5" ry="2.5" style="stroke:#181818;stroke-width:0.5;" width="483" x="732" y="904"/><ellipse cx="844.75" cy="920" fill="#ADD1B2" rx="11" ry="11" style="stroke:#181818;stroke-width:1.0;"/><path d="M847.7188,925.6406 Q847.1406,925.9375 846.5,926.0781 Q845.8594,926.2344 845.1563,926.2344 Q842.6563,926.2344 841.3281,924.5938 Q840.0156,922.9375 840.0156,919.8125 Q840.0156,916.6875 841.3281,915.0313 Q842.6563,913.375 845.1563,913.375 Q845.8594,913.375 846.5,913.5313 Q847.1563,913.6875 847.7188,913.9844 L847.7188,916.7031 Q847.0938,916.125 846.5,915.8594 Q845.9063,915.5781 845.2813,915.5781 Q843.9375,915.5781 843.25,916.6563 Q842.5625,917.7188 842.5625,919.8125 Q842.5625,921.9063 843.25,922.9844 Q843.9375,924.0469 845.2813,924.0469 Q845.9063,924.0469 846.5,923.7813 Q847.0938,923.5 847.7188,922.9219 L847.7188,925.6406 Z " fill="#000000"/><text fill="#000000" font-family="sans-serif" font-size="14" lengthAdjust="spacing" textLength="249" x="865.25" y="924.8467">ChromatographicSeparationProcess</text><line style="stroke:#181818;stroke-width:0.5;" x1="733" x2="1214" y1="936" y2="936"/><text fill="#000000" font-family="sans-serif" font-size="14" lengthAdjust="spacing" textLength="471" x="738" y="952.9951">"chromatographic_category": "ChromatographicCategoryEnum" [opt]</text><text fill="#000000" font-family="sans-serif" font-size="14" lengthAdjust="spacing" textLength="334" x="738" y="969.292">"stationary_phase": "StationaryPhaseEnum" [opt]</text><text fill="#000000" font-family="sans-serif" font-size="14" lengthAdjust="spacing" textLength="143" x="738" y="985.5889">"id": "uriorcurie" [req]</text><text fill="#000000" font-family="sans-serif" font-size="14" lengthAdjust="spacing" textLength="416" x="738" y="1001.8857">"processing_institution"(i): "ProcessingInstitutionEnum" [opt]</text><text fill="#000000" font-family="sans-serif" font-size="14" lengthAdjust="spacing" textLength="187" x="738" y="1018.1826">"start_date"(i): "string" [opt]</text><text fill="#000000" font-family="sans-serif" font-size="14" lengthAdjust="spacing" textLength="183" x="738" y="1034.4795">"end_date"(i): "string" [opt]</text><text fill="#000000" font-family="sans-serif" font-size="14" lengthAdjust="spacing" textLength="230" x="738" y="1050.7764">"qc_status"(i): "StatusEnum" [opt]</text><text fill="#000000" font-family="sans-serif" font-size="14" lengthAdjust="spacing" textLength="208" x="738" y="1067.0732">"qc_comment"(i): "string" [opt]</text><text fill="#000000" font-family="sans-serif" font-size="14" lengthAdjust="spacing" textLength="157" x="738" y="1083.3701">"name"(i): "string" [opt]</text><text fill="#000000" font-family="sans-serif" font-size="14" lengthAdjust="spacing" textLength="195" x="738" y="1099.667">"description"(i): "string" [opt]</text><text fill="#000000" font-family="sans-serif" font-size="14" lengthAdjust="spacing" textLength="290" x="738" y="1115.9639">"alternative_identifiers"(i): "uriorcurie" [0..*]</text><text fill="#000000" font-family="sans-serif" font-size="14" lengthAdjust="spacing" textLength="174" x="738" y="1132.2607">"type"(i): "uriorcurie" [req]</text><line style="stroke:#181818;stroke-width:0.5;" x1="733" x2="1214" y1="1139.5625" y2="1139.5625"/></g><!--class DissolvingProcess--><g id="elem_DissolvingProcess"><rect codeLine="29" fill="#F1F1F1" height="48" id="DissolvingProcess" rx="2.5" ry="2.5" style="stroke:#181818;stroke-width:0.5;" width="158" x="370.5" y="1002"/><ellipse cx="385.5" cy="1018" fill="#ADD1B2" rx="11" ry="11" style="stroke:#181818;stroke-width:1.0;"/><path d="M388.4688,1023.6406 Q387.8906,1023.9375 387.25,1024.0781 Q386.6094,1024.2344 385.9063,1024.2344 Q383.4063,1024.2344 382.0781,1022.5938 Q380.7656,1020.9375 380.7656,1017.8125 Q380.7656,1014.6875 382.0781,1013.0313 Q383.4063,1011.375 385.9063,1011.375 Q386.6094,1011.375 387.25,1011.5313 Q387.9063,1011.6875 388.4688,1011.9844 L388.4688,1014.7031 Q387.8438,1014.125 387.25,1013.8594 Q386.6563,1013.5781 386.0313,1013.5781 Q384.6875,1013.5781 384,1014.6563 Q383.3125,1015.7188 383.3125,1017.8125 Q383.3125,1019.9063 384,1020.9844 Q384.6875,1022.0469 386.0313,1022.0469 Q386.6563,1022.0469 387.25,1021.7813 Q387.8438,1021.5 388.4688,1020.9219 L388.4688,1023.6406 Z " fill="#000000"/><text fill="#000000" font-family="sans-serif" font-size="14" lengthAdjust="spacing" textLength="126" x="399.5" y="1022.8467">DissolvingProcess</text><line style="stroke:#181818;stroke-width:0.5;" x1="371.5" x2="527.5" y1="1034" y2="1034"/><line style="stroke:#181818;stroke-width:0.5;" x1="371.5" x2="527.5" y1="1042" y2="1042"/></g><!--class Protocol--><g id="elem_Protocol"><rect codeLine="34" fill="#F1F1F1" height="48" id="Protocol" rx="2.5" ry="2.5" style="stroke:#181818;stroke-width:0.5;" width="89" x="227" y="7"/><ellipse cx="242" cy="23" fill="#ADD1B2" rx="11" ry="11" style="stroke:#181818;stroke-width:1.0;"/><path d="M244.9688,28.6406 Q244.3906,28.9375 243.75,29.0781 Q243.1094,29.2344 242.4063,29.2344 Q239.9063,29.2344 238.5781,27.5938 Q237.2656,25.9375 237.2656,22.8125 Q237.2656,19.6875 238.5781,18.0313 Q239.9063,16.375 242.4063,16.375 Q243.1094,16.375 243.75,16.5313 Q244.4063,16.6875 244.9688,16.9844 L244.9688,19.7031 Q244.3438,19.125 243.75,18.8594 Q243.1563,18.5781 242.5313,18.5781 Q241.1875,18.5781 240.5,19.6563 Q239.8125,20.7188 239.8125,22.8125 Q239.8125,24.9063 240.5,25.9844 Q241.1875,27.0469 242.5313,27.0469 Q243.1563,27.0469 243.75,26.7813 Q244.3438,26.5 244.9688,25.9219 L244.9688,28.6406 Z " fill="#000000"/><text fill="#000000" font-family="sans-serif" font-size="14" lengthAdjust="spacing" textLength="57" x="256" y="27.8467">Protocol</text><line style="stroke:#181818;stroke-width:0.5;" x1="228" x2="315" y1="39" y2="39"/><line style="stroke:#181818;stroke-width:0.5;" x1="228" x2="315" y1="47" y2="47"/></g><!--class ProcessedSample--><g id="elem_ProcessedSample"><rect codeLine="35" fill="#F1F1F1" height="48" id="ProcessedSample" rx="2.5" ry="2.5" style="stroke:#181818;stroke-width:0.5;" width="157" x="7" y="311.5"/><ellipse cx="22" cy="327.5" fill="#ADD1B2" rx="11" ry="11" style="stroke:#181818;stroke-width:1.0;"/><path d="M24.9688,333.1406 Q24.3906,333.4375 23.75,333.5781 Q23.1094,333.7344 22.4063,333.7344 Q19.9063,333.7344 18.5781,332.0938 Q17.2656,330.4375 17.2656,327.3125 Q17.2656,324.1875 18.5781,322.5313 Q19.9063,320.875 22.4063,320.875 Q23.1094,320.875 23.75,321.0313 Q24.4063,321.1875 24.9688,321.4844 L24.9688,324.2031 Q24.3438,323.625 23.75,323.3594 Q23.1563,323.0781 22.5313,323.0781 Q21.1875,323.0781 20.5,324.1563 Q19.8125,325.2188 19.8125,327.3125 Q19.8125,329.4063 20.5,330.4844 Q21.1875,331.5469 22.5313,331.5469 Q23.1563,331.5469 23.75,331.2813 Q24.3438,331 24.9688,330.4219 L24.9688,333.1406 Z " fill="#000000"/><text fill="#000000" font-family="sans-serif" font-size="14" lengthAdjust="spacing" textLength="125" x="36" y="332.3467">ProcessedSample</text><line style="stroke:#181818;stroke-width:0.5;" x1="8" x2="163" y1="343.5" y2="343.5"/><line style="stroke:#181818;stroke-width:0.5;" x1="8" x2="163" y1="351.5" y2="351.5"/></g><!--class PersonValue--><g id="elem_PersonValue"><rect codeLine="36" fill="#F1F1F1" height="48" id="PersonValue" rx="2.5" ry="2.5" style="stroke:#181818;stroke-width:0.5;" width="119" x="174" y="311.5"/><ellipse cx="189" cy="327.5" fill="#ADD1B2" rx="11" ry="11" style="stroke:#181818;stroke-width:1.0;"/><path d="M191.9688,333.1406 Q191.3906,333.4375 190.75,333.5781 Q190.1094,333.7344 189.4063,333.7344 Q186.9063,333.7344 185.5781,332.0938 Q184.2656,330.4375 184.2656,327.3125 Q184.2656,324.1875 185.5781,322.5313 Q186.9063,320.875 189.4063,320.875 Q190.1094,320.875 190.75,321.0313 Q191.4063,321.1875 191.9688,321.4844 L191.9688,324.2031 Q191.3438,323.625 190.75,323.3594 Q190.1563,323.0781 189.5313,323.0781 Q188.1875,323.0781 187.5,324.1563 Q186.8125,325.2188 186.8125,327.3125 Q186.8125,329.4063 187.5,330.4844 Q188.1875,331.5469 189.5313,331.5469 Q190.1563,331.5469 190.75,331.2813 Q191.3438,331 191.9688,330.4219 L191.9688,333.1406 Z " fill="#000000"/><text fill="#000000" font-family="sans-serif" font-size="14" lengthAdjust="spacing" textLength="87" x="203" y="332.3467">PersonValue</text><line style="stroke:#181818;stroke-width:0.5;" x1="175" x2="292" y1="343.5" y2="343.5"/><line style="stroke:#181818;stroke-width:0.5;" x1="175" x2="292" y1="351.5" y2="351.5"/></g><!--class NamedThing--><g id="elem_NamedThing"><rect codeLine="37" fill="#F1F1F1" height="48" id="NamedThing" rx="2.5" ry="2.5" style="stroke:#181818;stroke-width:0.5;" width="121" x="303" y="311.5"/><ellipse cx="318" cy="327.5" fill="#A9DCDF" rx="11" ry="11" style="stroke:#181818;stroke-width:1.0;"/><path d="M318.1094,322.8438 L316.9531,327.9219 L319.2813,327.9219 L318.1094,322.8438 Z M316.625,320.6094 L319.6094,320.6094 L322.9688,333 L320.5156,333 L319.75,329.9375 L316.4688,329.9375 L315.7188,333 L313.2813,333 L316.625,320.6094 Z " fill="#000000"/><text fill="#000000" font-family="sans-serif" font-size="14" font-style="italic" lengthAdjust="spacing" textLength="89" x="332" y="332.3467">NamedThing</text><line style="stroke:#181818;stroke-width:0.5;" x1="304" x2="423" y1="343.5" y2="343.5"/><line style="stroke:#181818;stroke-width:0.5;" x1="304" x2="423" y1="351.5" y2="351.5"/></g><!--class MaterialProcessing--><g id="elem_MaterialProcessing"><rect codeLine="38" fill="#F1F1F1" height="48" id="MaterialProcessing" rx="2.5" ry="2.5" style="stroke:#181818;stroke-width:0.5;" width="162" x="440.5" y="311.5"/><ellipse cx="455.5" cy="327.5" fill="#ADD1B2" rx="11" ry="11" style="stroke:#181818;stroke-width:1.0;"/><path d="M458.4688,333.1406 Q457.8906,333.4375 457.25,333.5781 Q456.6094,333.7344 455.9063,333.7344 Q453.4063,333.7344 452.0781,332.0938 Q450.7656,330.4375 450.7656,327.3125 Q450.7656,324.1875 452.0781,322.5313 Q453.4063,320.875 455.9063,320.875 Q456.6094,320.875 457.25,321.0313 Q457.9063,321.1875 458.4688,321.4844 L458.4688,324.2031 Q457.8438,323.625 457.25,323.3594 Q456.6563,323.0781 456.0313,323.0781 Q454.6875,323.0781 454,324.1563 Q453.3125,325.2188 453.3125,327.3125 Q453.3125,329.4063 454,330.4844 Q454.6875,331.5469 456.0313,331.5469 Q456.6563,331.5469 457.25,331.2813 Q457.8438,331 458.4688,330.4219 L458.4688,333.1406 Z " fill="#000000"/><text fill="#000000" font-family="sans-serif" font-size="14" lengthAdjust="spacing" textLength="130" x="469.5" y="332.3467">MaterialProcessing</text><line style="stroke:#181818;stroke-width:0.5;" x1="441.5" x2="601.5" y1="343.5" y2="343.5"/><line style="stroke:#181818;stroke-width:0.5;" x1="441.5" x2="601.5" y1="351.5" y2="351.5"/></g><!--class MassSpectrometry--><g id="elem_MassSpectrometry"><rect codeLine="39" fill="#F1F1F1" height="439.125" id="MassSpectrometry" rx="2.5" ry="2.5" style="stroke:#181818;stroke-width:0.5;" width="558" x="612.5" y="116"/><ellipse cx="822.75" cy="132" fill="#ADD1B2" rx="11" ry="11" style="stroke:#181818;stroke-width:1.0;"/><path d="M825.7188,137.6406 Q825.1406,137.9375 824.5,138.0781 Q823.8594,138.2344 823.1563,138.2344 Q820.6563,138.2344 819.3281,136.5938 Q818.0156,134.9375 818.0156,131.8125 Q818.0156,128.6875 819.3281,127.0313 Q820.6563,125.375 823.1563,125.375 Q823.8594,125.375 824.5,125.5313 Q825.1563,125.6875 825.7188,125.9844 L825.7188,128.7031 Q825.0938,128.125 824.5,127.8594 Q823.9063,127.5781 823.2813,127.5781 Q821.9375,127.5781 821.25,128.6563 Q820.5625,129.7188 820.5625,131.8125 Q820.5625,133.9063 821.25,134.9844 Q821.9375,136.0469 823.2813,136.0469 Q823.9063,136.0469 824.5,135.7813 Q825.0938,135.5 825.7188,134.9219 L825.7188,137.6406 Z " fill="#000000"/><text fill="#000000" font-family="sans-serif" font-size="14" lengthAdjust="spacing" textLength="129" x="843.25" y="136.8467">MassSpectrometry</text><line style="stroke:#181818;stroke-width:0.5;" x1="613.5" x2="1169.5" y1="148" y2="148"/><text fill="#000000" font-family="sans-serif" font-size="14" lengthAdjust="spacing" textLength="384" x="618.5" y="164.9951">"acquisition_category": "AcquisitionCategoryEnum" [opt]</text><text fill="#000000" font-family="sans-serif" font-size="14" lengthAdjust="spacing" textLength="375" x="618.5" y="181.292">"acquisition_strategy": "AcquisitionStrategyEnum" [opt]</text><text fill="#000000" font-family="sans-serif" font-size="14" lengthAdjust="spacing" textLength="378" x="618.5" y="197.5889">"resolution_category": "ResolutionCategoryEnum" [opt]</text><text fill="#000000" font-family="sans-serif" font-size="14" lengthAdjust="spacing" textLength="301" x="618.5" y="213.8857">"mass_analyzer": "MassAnalyzerEnum" [opt]</text><text fill="#000000" font-family="sans-serif" font-size="14" lengthAdjust="spacing" textLength="342" x="618.5" y="230.1826">"ionization_source": "IonizationSourceEnum" [opt]</text><text fill="#000000" font-family="sans-serif" font-size="14" lengthAdjust="spacing" textLength="546" x="618.5" y="246.4795">"mass_spectrum_collection_mode": "MassSpectrumCollectionModeEnum" [opt]</text><text fill="#000000" font-family="sans-serif" font-size="14" lengthAdjust="spacing" textLength="290" x="618.5" y="262.7764">"polarity_mode": "PolarityModeEnum" [opt]</text><text fill="#000000" font-family="sans-serif" font-size="14" lengthAdjust="spacing" textLength="143" x="618.5" y="279.0732">"id": "uriorcurie" [req]</text><text fill="#000000" font-family="sans-serif" font-size="14" lengthAdjust="spacing" textLength="182" x="618.5" y="295.3701">"add_date"(i): "string" [opt]</text><text fill="#000000" font-family="sans-serif" font-size="14" lengthAdjust="spacing" textLength="347" x="618.5" y="311.667">"analyte_category"(i): "AnalyteCategoryEnum" [req]</text><text fill="#000000" font-family="sans-serif" font-size="14" lengthAdjust="spacing" textLength="449" x="618.5" y="327.9639">"gold_sequencing_project_identifiers"(i): "external_identifier" [0..*]</text><text fill="#000000" font-family="sans-serif" font-size="14" lengthAdjust="spacing" textLength="388" x="618.5" y="344.2607">"insdc_bioproject_identifiers"(i): "external_identifier" [0..*]</text><text fill="#000000" font-family="sans-serif" font-size="14" lengthAdjust="spacing" textLength="397" x="618.5" y="360.5576">"insdc_experiment_identifiers"(i): "external_identifier" [0..*]</text><text fill="#000000" font-family="sans-serif" font-size="14" lengthAdjust="spacing" textLength="187" x="618.5" y="376.8545">"mod_date"(i): "string" [opt]</text><text fill="#000000" font-family="sans-serif" font-size="14" lengthAdjust="spacing" textLength="248" x="618.5" y="393.1514">"ncbi_project_name"(i): "string" [opt]</text><text fill="#000000" font-family="sans-serif" font-size="14" lengthAdjust="spacing" textLength="416" x="618.5" y="409.4482">"processing_institution"(i): "ProcessingInstitutionEnum" [opt]</text><text fill="#000000" font-family="sans-serif" font-size="14" lengthAdjust="spacing" textLength="187" x="618.5" y="425.7451">"start_date"(i): "string" [opt]</text><text fill="#000000" font-family="sans-serif" font-size="14" lengthAdjust="spacing" textLength="183" x="618.5" y="442.042">"end_date"(i): "string" [opt]</text><text fill="#000000" font-family="sans-serif" font-size="14" lengthAdjust="spacing" textLength="230" x="618.5" y="458.3389">"qc_status"(i): "StatusEnum" [opt]</text><text fill="#000000" font-family="sans-serif" font-size="14" lengthAdjust="spacing" textLength="208" x="618.5" y="474.6357">"qc_comment"(i): "string" [opt]</text><text fill="#000000" font-family="sans-serif" font-size="14" lengthAdjust="spacing" textLength="157" x="618.5" y="490.9326">"name"(i): "string" [opt]</text><text fill="#000000" font-family="sans-serif" font-size="14" lengthAdjust="spacing" textLength="195" x="618.5" y="507.2295">"description"(i): "string" [opt]</text><text fill="#000000" font-family="sans-serif" font-size="14" lengthAdjust="spacing" textLength="290" x="618.5" y="523.5264">"alternative_identifiers"(i): "uriorcurie" [0..*]</text><text fill="#000000" font-family="sans-serif" font-size="14" lengthAdjust="spacing" textLength="174" x="618.5" y="539.8232">"type"(i): "uriorcurie" [req]</text><line style="stroke:#181818;stroke-width:0.5;" x1="613.5" x2="1169.5" y1="547.125" y2="547.125"/></g><!--class FluidHandling--><g id="elem_FluidHandling"><rect codeLine="65" fill="#F1F1F1" height="210.9688" id="FluidHandling" rx="2.5" ry="2.5" style="stroke:#181818;stroke-width:0.5;" width="428" x="506.5" y="632"/><ellipse cx="669.75" cy="648" fill="#A9DCDF" rx="11" ry="11" style="stroke:#181818;stroke-width:1.0;"/><path d="M669.8594,643.3438 L668.7031,648.4219 L671.0313,648.4219 L669.8594,643.3438 Z M668.375,641.1094 L671.3594,641.1094 L674.7188,653.5 L672.2656,653.5 L671.5,650.4375 L668.2188,650.4375 L667.4688,653.5 L665.0313,653.5 L668.375,641.1094 Z " fill="#000000"/><text fill="#000000" font-family="sans-serif" font-size="14" font-style="italic" lengthAdjust="spacing" textLength="93" x="690.25" y="652.8467">FluidHandling</text><line style="stroke:#181818;stroke-width:0.5;" x1="507.5" x2="933.5" y1="664" y2="664"/><text fill="#000000" font-family="sans-serif" font-size="14" lengthAdjust="spacing" textLength="156" x="512.5" y="680.9951">"id"(i): "uriorcurie" [req]</text><text fill="#000000" font-family="sans-serif" font-size="14" lengthAdjust="spacing" textLength="416" x="512.5" y="697.292">"processing_institution"(i): "ProcessingInstitutionEnum" [opt]</text><text fill="#000000" font-family="sans-serif" font-size="14" lengthAdjust="spacing" textLength="187" x="512.5" y="713.5889">"start_date"(i): "string" [opt]</text><text fill="#000000" font-family="sans-serif" font-size="14" lengthAdjust="spacing" textLength="183" x="512.5" y="729.8857">"end_date"(i): "string" [opt]</text><text fill="#000000" font-family="sans-serif" font-size="14" lengthAdjust="spacing" textLength="230" x="512.5" y="746.1826">"qc_status"(i): "StatusEnum" [opt]</text><text fill="#000000" font-family="sans-serif" font-size="14" lengthAdjust="spacing" textLength="208" x="512.5" y="762.4795">"qc_comment"(i): "string" [opt]</text><text fill="#000000" font-family="sans-serif" font-size="14" lengthAdjust="spacing" textLength="157" x="512.5" y="778.7764">"name"(i): "string" [opt]</text><text fill="#000000" font-family="sans-serif" font-size="14" lengthAdjust="spacing" textLength="195" x="512.5" y="795.0732">"description"(i): "string" [opt]</text><text fill="#000000" font-family="sans-serif" font-size="14" lengthAdjust="spacing" textLength="290" x="512.5" y="811.3701">"alternative_identifiers"(i): "uriorcurie" [0..*]</text><text fill="#000000" font-family="sans-serif" font-size="14" lengthAdjust="spacing" textLength="174" x="512.5" y="827.667">"type"(i): "uriorcurie" [req]</text><line style="stroke:#181818;stroke-width:0.5;" x1="507.5" x2="933.5" y1="834.9688" y2="834.9688"/></g><!--class DataGeneration--><g id="elem_DataGeneration"><rect codeLine="77" fill="#F1F1F1" height="48" id="DataGeneration" rx="2.5" ry="2.5" style="stroke:#181818;stroke-width:0.5;" width="141" x="821" y="7"/><ellipse cx="836" cy="23" fill="#A9DCDF" rx="11" ry="11" style="stroke:#181818;stroke-width:1.0;"/><path d="M836.1094,18.3438 L834.9531,23.4219 L837.2813,23.4219 L836.1094,18.3438 Z M834.625,16.1094 L837.6094,16.1094 L840.9688,28.5 L838.5156,28.5 L837.75,25.4375 L834.4688,25.4375 L833.7188,28.5 L831.2813,28.5 L834.625,16.1094 Z " fill="#000000"/><text fill="#000000" font-family="sans-serif" font-size="14" font-style="italic" lengthAdjust="spacing" textLength="109" x="850" y="27.8467">DataGeneration</text><line style="stroke:#181818;stroke-width:0.5;" x1="822" x2="961" y1="39" y2="39"/><line style="stroke:#181818;stroke-width:0.5;" x1="822" x2="961" y1="47" y2="47"/></g><!--class Instrument--><g id="elem_Instrument"><rect codeLine="80" fill="#F1F1F1" height="48" id="Instrument" rx="2.5" ry="2.5" style="stroke:#181818;stroke-width:0.5;" width="107" x="32" y="713.5"/><ellipse cx="47" cy="729.5" fill="#ADD1B2" rx="11" ry="11" style="stroke:#181818;stroke-width:1.0;"/><path d="M49.9688,735.1406 Q49.3906,735.4375 48.75,735.5781 Q48.1094,735.7344 47.4063,735.7344 Q44.9063,735.7344 43.5781,734.0938 Q42.2656,732.4375 42.2656,729.3125 Q42.2656,726.1875 43.5781,724.5313 Q44.9063,722.875 47.4063,722.875 Q48.1094,722.875 48.75,723.0313 Q49.4063,723.1875 49.9688,723.4844 L49.9688,726.2031 Q49.3438,725.625 48.75,725.3594 Q48.1563,725.0781 47.5313,725.0781 Q46.1875,725.0781 45.5,726.1563 Q44.8125,727.2188 44.8125,729.3125 Q44.8125,731.4063 45.5,732.4844 Q46.1875,733.5469 47.5313,733.5469 Q48.1563,733.5469 48.75,733.2813 Q49.3438,733 49.9688,732.4219 L49.9688,735.1406 Z " fill="#000000"/><text fill="#000000" font-family="sans-serif" font-size="14" lengthAdjust="spacing" textLength="75" x="61" y="734.3467">Instrument</text><line style="stroke:#181818;stroke-width:0.5;" x1="33" x2="138" y1="745.5" y2="745.5"/><line style="stroke:#181818;stroke-width:0.5;" x1="33" x2="138" y1="753.5" y2="753.5"/></g><!--class DirectInfusionProcess--><g id="elem_DirectInfusionProcess"><rect codeLine="81" fill="#F1F1F1" height="48" id="DirectInfusionProcess" rx="2.5" ry="2.5" style="stroke:#181818;stroke-width:0.5;" width="183" x="539" y="1002"/><ellipse cx="554" cy="1018" fill="#ADD1B2" rx="11" ry="11" style="stroke:#181818;stroke-width:1.0;"/><path d="M556.9688,1023.6406 Q556.3906,1023.9375 555.75,1024.0781 Q555.1094,1024.2344 554.4063,1024.2344 Q551.9063,1024.2344 550.5781,1022.5938 Q549.2656,1020.9375 549.2656,1017.8125 Q549.2656,1014.6875 550.5781,1013.0313 Q551.9063,1011.375 554.4063,1011.375 Q555.1094,1011.375 555.75,1011.5313 Q556.4063,1011.6875 556.9688,1011.9844 L556.9688,1014.7031 Q556.3438,1014.125 555.75,1013.8594 Q555.1563,1013.5781 554.5313,1013.5781 Q553.1875,1013.5781 552.5,1014.6563 Q551.8125,1015.7188 551.8125,1017.8125 Q551.8125,1019.9063 552.5,1020.9844 Q553.1875,1022.0469 554.5313,1022.0469 Q555.1563,1022.0469 555.75,1021.7813 Q556.3438,1021.5 556.9688,1020.9219 L556.9688,1023.6406 Z " fill="#000000"/><text fill="#000000" font-family="sans-serif" font-size="14" lengthAdjust="spacing" textLength="151" x="568" y="1022.8467">DirectInfusionProcess</text><line style="stroke:#181818;stroke-width:0.5;" x1="540" x2="721" y1="1034" y2="1034"/><line style="stroke:#181818;stroke-width:0.5;" x1="540" x2="721" y1="1042" y2="1042"/></g><!--class FailureCategorization--><g id="elem_FailureCategorization"><rect codeLine="85" fill="#F1F1F1" height="48" id="FailureCategorization" rx="2.5" ry="2.5" style="stroke:#181818;stroke-width:0.5;" width="177" x="149" y="713.5"/><ellipse cx="164" cy="729.5" fill="#ADD1B2" rx="11" ry="11" style="stroke:#181818;stroke-width:1.0;"/><path d="M166.9688,735.1406 Q166.3906,735.4375 165.75,735.5781 Q165.1094,735.7344 164.4063,735.7344 Q161.9063,735.7344 160.5781,734.0938 Q159.2656,732.4375 159.2656,729.3125 Q159.2656,726.1875 160.5781,724.5313 Q161.9063,722.875 164.4063,722.875 Q165.1094,722.875 165.75,723.0313 Q166.4063,723.1875 166.9688,723.4844 L166.9688,726.2031 Q166.3438,725.625 165.75,725.3594 Q165.1563,725.0781 164.5313,725.0781 Q163.1875,725.0781 162.5,726.1563 Q161.8125,727.2188 161.8125,729.3125 Q161.8125,731.4063 162.5,732.4844 Q163.1875,733.5469 164.5313,733.5469 Q165.1563,733.5469 165.75,733.2813 Q166.3438,733 166.9688,732.4219 L166.9688,735.1406 Z " fill="#000000"/><text fill="#000000" font-family="sans-serif" font-size="14" lengthAdjust="spacing" textLength="145" x="178" y="734.3467">FailureCategorization</text><line style="stroke:#181818;stroke-width:0.5;" x1="150" x2="325" y1="745.5" y2="745.5"/><line style="stroke:#181818;stroke-width:0.5;" x1="150" x2="325" y1="753.5" y2="753.5"/></g><!--class DataObject--><g id="elem_DataObject"><rect codeLine="86" fill="#F1F1F1" height="48" id="DataObject" rx="2.5" ry="2.5" style="stroke:#181818;stroke-width:0.5;" width="109" x="810" y="1233"/><ellipse cx="825" cy="1249" fill="#ADD1B2" rx="11" ry="11" style="stroke:#181818;stroke-width:1.0;"/><path d="M827.9688,1254.6406 Q827.3906,1254.9375 826.75,1255.0781 Q826.1094,1255.2344 825.4063,1255.2344 Q822.9063,1255.2344 821.5781,1253.5938 Q820.2656,1251.9375 820.2656,1248.8125 Q820.2656,1245.6875 821.5781,1244.0313 Q822.9063,1242.375 825.4063,1242.375 Q826.1094,1242.375 826.75,1242.5313 Q827.4063,1242.6875 827.9688,1242.9844 L827.9688,1245.7031 Q827.3438,1245.125 826.75,1244.8594 Q826.1563,1244.5781 825.5313,1244.5781 Q824.1875,1244.5781 823.5,1245.6563 Q822.8125,1246.7188 822.8125,1248.8125 Q822.8125,1250.9063 823.5,1251.9844 Q824.1875,1253.0469 825.5313,1253.0469 Q826.1563,1253.0469 826.75,1252.7813 Q827.3438,1252.5 827.9688,1251.9219 L827.9688,1254.6406 Z " fill="#000000"/><text fill="#000000" font-family="sans-serif" font-size="14" lengthAdjust="spacing" textLength="77" x="839" y="1253.8467">DataObject</text><line style="stroke:#181818;stroke-width:0.5;" x1="811" x2="918" y1="1265" y2="1265"/><line style="stroke:#181818;stroke-width:0.5;" x1="811" x2="918" y1="1273" y2="1273"/></g><!--link SolutionComponent to QuantityValue--><g id="link_SolutionComponent_QuantityValue"><path codeLine="12" d="M777.5,1459.1 C777.5,1483.91 777.5,1497.02 777.5,1517.88 " fill="none" id="SolutionComponent-QuantityValue" style="stroke:#181818;stroke-width:1.0;"/><polygon fill="#181818" points="777.5,1447.1,773.5,1453.1,777.5,1459.1,781.5,1453.1,777.5,1447.1" style="stroke:#181818;stroke-width:1.0;"/><polygon fill="#181818" points="777.5,1523.88,781.5,1514.88,777.5,1518.88,773.5,1514.88,777.5,1523.88" style="stroke:#181818;stroke-width:1.0;"/><text fill="#000000" font-family="sans-serif" font-size="13" lengthAdjust="spacing" textLength="88" x="778.5" y="1490.0669">concentration</text><text fill="#000000" font-family="sans-serif" font-size="13" lengthAdjust="spacing" textLength="24" x="750.425" y="1512.8613">0..1</text></g><!--link Solution to SolutionComponent--><g id="link_Solution_SolutionComponent"><path codeLine="13" d="M664.062,1297.5534 C687.522,1319.8834 706.2236,1337.6737 731.4636,1361.6937 " fill="none" id="Solution-SolutionComponent" style="stroke:#181818;stroke-width:1.0;"/><polygon fill="#181818" points="655.37,1289.28,656.9582,1296.314,664.062,1297.5534,662.4738,1290.5193,655.37,1289.28" style="stroke:#181818;stroke-width:1.0;"/><polygon fill="#181818" points="735.81,1365.83,732.048,1356.728,732.188,1362.3831,726.5329,1362.5231,735.81,1365.83" style="stroke:#181818;stroke-width:1.0;"/><text fill="#000000" font-family="sans-serif" font-size="13" lengthAdjust="spacing" textLength="167" x="700.5" y="1332.0669">has_solution_components</text><text fill="#000000" font-family="sans-serif" font-size="13" lengthAdjust="spacing" textLength="23" x="704.0004" y="1354.9634">1..*</text></g><!--link Solution to QuantityValue--><g id="link_Solution_QuantityValue"><path codeLine="30" d="M612.7881,1300.8191 C605.1181,1340.2391 600.05,1397.29 627.5,1447 C647.1,1482.48 679.8678,1504.9982 712.7878,1521.2182 " fill="none" id="Solution-QuantityValue" style="stroke:#181818;stroke-width:1.0;"/><polygon fill="#181818" points="615.08,1289.04,610.0077,1294.1656,612.7881,1300.8191,617.8604,1295.6935,615.08,1289.04" style="stroke:#181818;stroke-width:1.0;"/><polygon fill="#181818" points="718.17,1523.87,711.8646,1516.3041,713.6849,1521.6601,708.3289,1523.4803,718.17,1523.87" style="stroke:#181818;stroke-width:1.0;"/><text fill="#000000" font-family="sans-serif" font-size="13" lengthAdjust="spacing" textLength="47" x="628.5" y="1411.0669">volume</text><text fill="#000000" font-family="sans-serif" font-size="13" lengthAdjust="spacing" textLength="24" x="681.9102" y="1515.5119">0..1</text></g><!--link Extraction to Solution--><g id="link_Extraction_Solution"><path codeLine="31" d="M318.5715,1061.6234 C325.5415,1088.4134 337.53,1120.82 365.5,1148 C412.36,1193.53 475.5079,1219.3973 530.1779,1235.2673 " fill="none" id="Extraction-Solution" style="stroke:#181818;stroke-width:1.0;"/><polygon fill="#181818" points="315.55,1050.01,313.1896,1056.8239,318.5715,1061.6234,320.9319,1054.8095,315.55,1050.01" style="stroke:#181818;stroke-width:1.0;"/><polygon fill="#181818" points="535.94,1236.94,528.4119,1230.5896,531.1382,1235.5461,526.1817,1238.2724,535.94,1236.94" style="stroke:#181818;stroke-width:1.0;"/><text fill="#000000" font-family="sans-serif" font-size="13" lengthAdjust="spacing" textLength="66" x="426.5" y="1191.0669">extractant</text><text fill="#000000" font-family="sans-serif" font-size="13" lengthAdjust="spacing" textLength="24" x="504.086" y="1231.8042">0..1</text></g><!--link ChromatographicSeparationProcess to Solution--><g id="link_ChromatographicSeparationProcess_Solution"><path codeLine="32" d="M739.8453,1154.7146 C724.9053,1164.4146 720.36,1167.86 706.5,1178 C687.39,1191.98 672.1742,1205.6193 656.7842,1220.7093 " fill="none" id="ChromatographicSeparationProcess-Solution" style="stroke:#181818;stroke-width:1.0;"/><polygon fill="#181818" points="749.91,1148.18,742.6994,1148.0924,739.8453,1154.7146,747.0559,1154.8022,749.91,1148.18" style="stroke:#181818;stroke-width:1.0;"/><polygon fill="#181818" points="652.5,1224.91,661.7267,1221.4651,656.0702,1221.4094,656.1258,1215.7529,652.5,1224.91" style="stroke:#181818;stroke-width:1.0;"/><text fill="#000000" font-family="sans-serif" font-size="13" lengthAdjust="spacing" textLength="153" x="707.5" y="1191.0669">ordered_mobile_phases</text><text fill="#000000" font-family="sans-serif" font-size="13" lengthAdjust="spacing" textLength="23" x="633.3156" y="1213.7945">0..*</text></g><!--link DissolvingProcess to Solution--><g id="link_DissolvingProcess_Solution"><path codeLine="33" d="M471.7354,1060.0315 C488.4254,1084.6415 509.24,1114.64 534.5,1148 C554.5,1174.42 574.4546,1198.8842 592.2546,1220.2042 " fill="none" id="DissolvingProcess-Solution" style="stroke:#181818;stroke-width:1.0;"/><polygon fill="#181818" points="465,1050.1,465.0572,1057.3109,471.7354,1060.0315,471.6782,1052.8206,465,1050.1" style="stroke:#181818;stroke-width:1.0;"/><polygon fill="#181818" points="596.1,1224.81,593.4025,1215.3378,592.8955,1220.9718,587.2614,1220.4649,596.1,1224.81" style="stroke:#181818;stroke-width:1.0;"/><text fill="#000000" font-family="sans-serif" font-size="13" lengthAdjust="spacing" textLength="46" x="570.5" y="1191.0669">solvent</text><text fill="#000000" font-family="sans-serif" font-size="13" lengthAdjust="spacing" textLength="8" x="582.115" y="1214.0468">1</text></g><!--link MassSpectrometry to FluidHandling--><g id="link_MassSpectrometry_FluidHandling"><path codeLine="78" d="M797.99,555.23 C786.61,581.85 777.7799,602.5236 767.5899,626.3436 " fill="none" id="MassSpectrometry-to-FluidHandling" style="stroke:#181818;stroke-width:1.0;"/><polygon fill="#181818" points="765.23,631.86,772.4474,625.1586,767.1966,627.263,765.0922,622.0121,765.23,631.86" style="stroke:#181818;stroke-width:1.0;"/><text fill="#000000" font-family="sans-serif" font-size="13" lengthAdjust="spacing" textLength="123" x="781.5" y="598.0669">eluent_introduction</text><text fill="#000000" font-family="sans-serif" font-size="13" lengthAdjust="spacing" textLength="24" x="743.5313" y="620.9775">0..1</text></g><!--reverse link DataGeneration to MassSpectrometry--><g id="link_DataGeneration_MassSpectrometry"><path codeLine="79" d="M891.5,73.23 C891.5,88.31 891.5,91.63 891.5,115.84 " fill="none" id="DataGeneration-backto-MassSpectrometry" style="stroke:#181818;stroke-width:1.0;"/><polygon fill="none" points="891.5,55.23,885.5,73.23,897.5,73.23,891.5,55.23" style="stroke:#181818;stroke-width:1.0;"/></g><!--reverse link FluidHandling to DirectInfusionProcess--><g id="link_FluidHandling_DirectInfusionProcess"><path codeLine="82" d="M682.2343,860.3223 C664.1043,918.0223 648.53,967.59 637.75,1001.94 " fill="none" id="FluidHandling-backto-DirectInfusionProcess" style="stroke:#181818;stroke-width:1.0;"/><polygon fill="none" points="687.63,843.15,676.5102,858.5237,687.9584,862.1208,687.63,843.15" style="stroke:#181818;stroke-width:1.0;"/></g><!--reverse link FluidHandling to ChromatographicSeparationProcess--><g id="link_FluidHandling_ChromatographicSeparationProcess"><path codeLine="83" d="M824.828,856.6393 C842.198,876.2993 848.56,883.52 866.33,903.64 " fill="none" id="FluidHandling-backto-ChromatographicSeparationProcess" style="stroke:#181818;stroke-width:1.0;"/><polygon fill="none" points="812.91,843.15,820.3316,860.6119,829.3245,852.6666,812.91,843.15" style="stroke:#181818;stroke-width:1.0;"/></g><!--reverse link MaterialProcessing to FluidHandling--><g id="link_MaterialProcessing_FluidHandling"><path codeLine="84" d="M534.7948,376.8087 C548.3848,417.3987 572.98,486.35 607.5,555 C620.34,580.53 635.68,607.13 650.85,631.84 " fill="none" id="MaterialProcessing-backto-FluidHandling" style="stroke:#181818;stroke-width:1.0;"/><polygon fill="none" points="529.08,359.74,529.1052,378.7136,540.4844,374.9038,529.08,359.74" style="stroke:#181818;stroke-width:1.0;"/></g><!--link ChromatographicSeparationProcess to QuantityValue--><g id="link_ChromatographicSeparationProcess_QuantityValue"><path codeLine="87" d="M974.4561,1160.1067 C969.6361,1262.5567 948.21,1395.94 869.5,1494 C859.81,1506.07 851.7565,1512.9133 838.3465,1520.7133 " fill="none" id="ChromatographicSeparationProcess-QuantityValue" style="stroke:#181818;stroke-width:1.0;"/><polygon fill="#181818" points="975.02,1148.12,970.7424,1153.9254,974.4561,1160.1067,978.7336,1154.3014,975.02,1148.12" style="stroke:#181818;stroke-width:1.0;"/><polygon fill="#181818" points="833.16,1523.73,842.9508,1522.6625,837.482,1521.2161,838.9285,1515.7473,833.16,1523.73" style="stroke:#181818;stroke-width:1.0;"/><text fill="#000000" font-family="sans-serif" font-size="13" lengthAdjust="spacing" textLength="81" x="951.5" y="1332.0669">temperature</text><text fill="#000000" font-family="sans-serif" font-size="13" lengthAdjust="spacing" textLength="24" x="819.8021" y="1513.0691">0..1</text></g><!--link ChromatographicSeparationProcess to DataObject--><g id="link_ChromatographicSeparationProcess_DataObject"><path codeLine="88" d="M880.02,1148.32 C875.15,1158.04 870.88,1167.98 867.5,1178 C861.52,1195.72 860.7801,1211.0096 861.6801,1226.8696 " fill="none" id="ChromatographicSeparationProcess-to-DataObject" style="stroke:#181818;stroke-width:1.0;"/><polygon fill="#181818" points="862.02,1232.86,865.5037,1223.6478,861.7367,1227.868,857.5165,1224.1011,862.02,1232.86" style="stroke:#181818;stroke-width:1.0;"/><text fill="#000000" font-family="sans-serif" font-size="13" lengthAdjust="spacing" textLength="96" x="868.5" y="1191.0669">has_calibration</text><text fill="#000000" font-family="sans-serif" font-size="13" lengthAdjust="spacing" textLength="24" x="834.3095" y="1221.8362">0..1</text></g><!--SRC=[xLTBJnin4BxdLwpsr4PA15SEbL20bWDjsaMzLEtAiOV4hTVU-848YF_UyRwVIL1xGO83qivyytdUTimVBbEYIH98nS106foUJAWWnWJXBJpOxqGu24j9P1tRrLzAECkLNAWaLHAa3OEdIO1_JtSS17iEGkerJhBmB0YDrLokm-27XktFDipkKl0GfxdI5Fz32Nikp_hgYBJSxZh-51xq3jx7EEJtT3Rx48Gdy_bfs3qhEFDnI8euJRB39erpSyFJ-NmQ3YO4ZJV4nARGnBHKcIg8omSafZbp8Lfij4g8LMjDqWsd4VWIUSHIAmh6z1FTDeWfiR1MUkTpq25R5AfBwH9CYafjfnh6PaSHlOjJz3tBOrJ9bbuqQilPSDPRe3GF0hiXvj9WflDSlkFlqNPPAQzhtJvVjOqPXbIOLrtMnu9aHoAtDFP9SAQ0Hjd7g1C8nx8clju7gIL9Zd009v5gdZRIiWTCX0KjiJxt47E6Nd3KwDBtLYsmmQT3ipS0RO_V1JVOmlVeGjc1_I4OdPvx16BKasQdjsrgAeH3Za8MD3ay2HNHj4kaD0CDB4xKYWl8czaxtW-c7ECkWuVvifPfGBnLL8ccm1C0YqYIYdenBR40IXRBYgnC5b4GViRgizkDhsI9lC6Er9o8kkyRAcEY5AZ55835OUvEFQ5RnmtF5qjZuizh-S5fRt9uDn7UvOWAyIY7Xdg_DTpuLeaFUf5Wg36HHEmUGNjR7_jvyJs-RPJaZoHtNJbDirLrNGcZJBR_J9FbroKumK90rflOBmnA7w92lwZKDwWTvKoL81gRl-9O5eAzLaTjJSAENLzP7YtKjSWjpdDnfnRzWzPAiDZ0re6aVaVZklwDeG_i5fnKltb4GpMyP73DCnglkFflNF2GujZudVilN5Yb8tCgwOfNcJXkYRzTSw_dcgjNz9Lmd7qYaedCaQVUf8wHlDN-rTV-WbZo4IHKx_p-3TnyjNHQnIyUlE_zHiAV2egvuatVfGr-pMO3btjvw_kUm0kd-Uouu1g1r_BEcSRBPz9r8EDz2VRWuseoz3p9RTjyfQTNX0kdopkck8VhE30HNrP-XRxiPJVyhBIGf3wdUDvHT4ssXYVbJpHA15yL9VeB]--></g></svg>